<svg width="69" height="22" viewBox="0 0 69 22" fill="none" xmlns="http://www.w3.org/2000/svg">
<rect width="69" height="22" rx="2" fill="#FFDADA"/>
<path d="M4.41602 14.918C4.41602 14.7969 4.50195 14.7363 4.67383 14.7363C4.79492 14.7363 4.91992 14.7266 5.04883 14.707C5.17773 14.6836 5.29883 14.6562 5.41211 14.625C5.47461 14.6094 5.5293 14.5859 5.57617 14.5547C5.62305 14.5195 5.64648 14.459 5.64648 14.373V7.17188C5.62305 7.11719 5.57812 7.07031 5.51172 7.03125C5.44922 6.99219 5.375 6.96094 5.28906 6.9375C5.20312 6.91406 5.11133 6.89453 5.01367 6.87891C4.91992 6.86328 4.82812 6.84961 4.73828 6.83789C4.65234 6.82617 4.57227 6.81445 4.49805 6.80273C4.42773 6.78711 4.375 6.76953 4.33984 6.75C4.3125 6.74219 4.29883 6.71484 4.29883 6.66797C4.29883 6.63281 4.3125 6.61328 4.33984 6.60938C4.35547 6.60156 4.37891 6.59375 4.41016 6.58594C4.44141 6.57812 4.50195 6.57422 4.5918 6.57422C4.62305 6.57422 4.69531 6.57812 4.80859 6.58594C4.92578 6.58984 5.05273 6.59766 5.18945 6.60938C5.32617 6.61719 5.45508 6.625 5.57617 6.63281C5.70117 6.63672 5.78516 6.63867 5.82812 6.63867H6.61914C6.63477 6.63867 6.67188 6.63672 6.73047 6.63281C6.79297 6.62891 6.85938 6.62695 6.92969 6.62695C7 6.62305 7.0625 6.61914 7.11719 6.61523C7.17578 6.61133 7.20898 6.60938 7.2168 6.60938C7.34961 6.58984 7.48242 6.57812 7.61523 6.57422C7.74805 6.57031 7.88281 6.56836 8.01953 6.56836C8.25781 6.56836 8.50195 6.57812 8.75195 6.59766C9.00586 6.61328 9.24414 6.66406 9.4668 6.75C9.69336 6.83594 9.89844 6.95117 10.082 7.0957C10.2656 7.23633 10.4219 7.39844 10.5508 7.58203C10.6836 7.76172 10.7852 7.95898 10.8555 8.17383C10.9297 8.38867 10.9668 8.60938 10.9668 8.83594C10.9668 9.23438 10.8945 9.58008 10.75 9.87305C10.6094 10.1621 10.3809 10.4219 10.0645 10.6523C9.86914 10.793 9.63086 10.9121 9.34961 11.0098C9.07227 11.1035 8.75586 11.1504 8.40039 11.1504C8.24805 11.1504 8.09766 11.1484 7.94922 11.1445C7.80078 11.1367 7.64844 11.125 7.49219 11.1094C7.47266 11.1094 7.44922 11.1055 7.42188 11.0977C7.39453 11.0898 7.35938 11.0859 7.31641 11.0859H7.20508C7.16992 11.0859 7.15039 11.0938 7.14648 11.1094C7.08398 11.1289 7.03125 11.1641 6.98828 11.2148C6.94531 11.2617 6.92383 11.3438 6.92383 11.4609V12.5859C6.92383 12.8516 6.91211 13.1406 6.88867 13.4531C6.86914 13.7656 6.85938 14.0645 6.85938 14.3496C6.85938 14.4316 6.87695 14.4902 6.91211 14.5254C6.94727 14.5566 6.99805 14.5801 7.06445 14.5957C7.24023 14.6387 7.40625 14.6699 7.5625 14.6895C7.71875 14.7051 7.88086 14.7305 8.04883 14.7656C8.10742 14.7852 8.14258 14.8066 8.1543 14.8301C8.16992 14.8496 8.17773 14.873 8.17773 14.9004C8.17773 14.9238 8.16602 14.9434 8.14258 14.959C8.12305 14.9707 8.09766 14.9824 8.06641 14.9941C8.03906 15.002 8.00977 15.0078 7.97852 15.0117C7.95117 15.0156 7.92773 15.0176 7.9082 15.0176C7.86133 15.0176 7.80273 15.0156 7.73242 15.0117C7.66602 15.0117 7.59766 15.0098 7.52734 15.0059C7.46094 15.0059 7.39648 15.0039 7.33398 15C7.27539 15 7.22852 15 7.19336 15H5.42383C5.27539 15 5.13281 15.002 4.99609 15.0059C4.86328 15.0137 4.76562 15.0176 4.70312 15.0176H4.48633C4.43945 15.0137 4.41602 14.9805 4.41602 14.918ZM7.03516 10.8867C7.10547 10.9062 7.17383 10.9238 7.24023 10.9395C7.31055 10.9512 7.39648 10.957 7.49805 10.957C7.67383 10.957 7.85156 10.9375 8.03125 10.8984C8.21094 10.8555 8.375 10.793 8.52344 10.7109C8.66406 10.6367 8.80078 10.5391 8.93359 10.418C9.07031 10.2969 9.19141 10.1562 9.29688 9.99609C9.40234 9.83203 9.48633 9.65039 9.54883 9.45117C9.61523 9.24805 9.64844 9.02734 9.64844 8.78906C9.64844 8.53906 9.62109 8.31836 9.56641 8.12695C9.51172 7.93164 9.42969 7.75977 9.32031 7.61133C9.21484 7.46289 9.08008 7.33398 8.91602 7.22461C8.75586 7.11133 8.56836 7.00977 8.35352 6.91992C8.23633 6.86914 8.11328 6.83398 7.98438 6.81445C7.85938 6.79102 7.72852 6.7793 7.5918 6.7793C7.4668 6.7793 7.35156 6.78516 7.24609 6.79688C7.14453 6.80469 7.03711 6.83008 6.92383 6.87305V10.5996C6.92383 10.6621 6.92773 10.7207 6.93555 10.7754C6.94727 10.8301 6.98047 10.8672 7.03516 10.8867ZM11.3652 12.2637C11.3652 11.8496 11.4336 11.4785 11.5703 11.1504C11.7109 10.8184 11.9043 10.5371 12.1504 10.3066C12.3965 10.0762 12.6895 9.89844 13.0293 9.77344C13.3691 9.64844 13.7422 9.58594 14.1484 9.58594C14.2383 9.58594 14.332 9.5957 14.4297 9.61523C14.5273 9.63477 14.625 9.66211 14.7227 9.69727C14.8242 9.72852 14.9219 9.76562 15.0156 9.80859C15.1133 9.85156 15.2031 9.89648 15.2852 9.94336C15.75 10.2012 16.0957 10.5352 16.3223 10.9453C16.5527 11.3555 16.668 11.8242 16.668 12.3516C16.668 12.707 16.6055 13.0488 16.4805 13.377C16.3594 13.7012 16.1738 13.9961 15.9238 14.2617C15.6738 14.5195 15.3887 14.707 15.0684 14.8242C14.748 14.9414 14.4121 15 14.0605 15C13.8027 15 13.5488 14.9766 13.2988 14.9297C13.0527 14.8828 12.8066 14.7715 12.5605 14.5957C12.1504 14.2988 11.8477 13.9609 11.6523 13.582C11.4609 13.2031 11.3652 12.7637 11.3652 12.2637ZM12.3672 12.293C12.3672 12.4492 12.3809 12.6172 12.4082 12.7969C12.4355 12.9766 12.4766 13.1582 12.5312 13.3418C12.5898 13.5215 12.6621 13.6973 12.748 13.8691C12.8379 14.0371 12.9434 14.1875 13.0645 14.3203C13.1855 14.4492 13.3262 14.5527 13.4863 14.6309C13.6465 14.709 13.8242 14.748 14.0195 14.748C14.1445 14.748 14.2539 14.7363 14.3477 14.7129C14.4414 14.6855 14.5254 14.6484 14.5996 14.6016C14.6777 14.5547 14.748 14.5 14.8105 14.4375C14.877 14.3711 14.9414 14.2988 15.0039 14.2207C15.1133 14.0801 15.207 13.9258 15.2852 13.7578C15.3633 13.5898 15.4277 13.418 15.4785 13.2422C15.5293 13.0664 15.5645 12.8926 15.584 12.7207C15.6074 12.5449 15.6191 12.3789 15.6191 12.2227C15.6191 12.0742 15.6035 11.9102 15.5723 11.7305C15.541 11.5469 15.4902 11.3633 15.4199 11.1797C15.3535 10.9922 15.2676 10.8105 15.1621 10.6348C15.0566 10.459 14.9297 10.3027 14.7812 10.166C14.668 10.0566 14.5469 9.97656 14.418 9.92578C14.2891 9.875 14.1836 9.84961 14.1016 9.84961C13.918 9.84961 13.7578 9.86914 13.6211 9.9082C13.4844 9.94336 13.3633 9.99805 13.2578 10.0723C13.1523 10.1465 13.0547 10.2402 12.9648 10.3535C12.8789 10.4668 12.791 10.5996 12.7012 10.752C12.5488 11.0098 12.4551 11.2656 12.4199 11.5195C12.3848 11.7734 12.3672 12.0312 12.3672 12.293ZM19.7676 14.959L17.6523 9.91992C17.6211 9.84961 17.5918 9.79688 17.5645 9.76172C17.541 9.72266 17.5156 9.69531 17.4883 9.67969C17.4609 9.66016 17.4316 9.64844 17.4004 9.64453C17.3691 9.64062 17.3301 9.63867 17.2832 9.63867H17.0723C17.0176 9.63867 16.9707 9.63867 16.9316 9.63867C16.8926 9.63867 16.8652 9.63477 16.8496 9.62695C16.7559 9.61133 16.709 9.56445 16.709 9.48633C16.709 9.45117 16.7246 9.42578 16.7559 9.41016C16.7832 9.39062 16.8184 9.37695 16.8613 9.36914C16.9043 9.35742 16.9512 9.35156 17.002 9.35156C17.0527 9.34766 17.0996 9.3457 17.1426 9.3457C17.2324 9.3457 17.3398 9.34961 17.4648 9.35742C17.5938 9.36133 17.7598 9.36328 17.9629 9.36328C18.0488 9.36328 18.1465 9.36133 18.2559 9.35742C18.3691 9.35352 18.4824 9.35156 18.5957 9.35156C18.709 9.34766 18.8164 9.34375 18.918 9.33984C19.0195 9.33594 19.1035 9.33398 19.1699 9.33398C19.2207 9.33398 19.2715 9.3418 19.3223 9.35742C19.377 9.36914 19.4043 9.4082 19.4043 9.47461C19.4043 9.51758 19.3926 9.55078 19.3691 9.57422C19.3496 9.59375 19.3223 9.60938 19.2871 9.62109C19.2559 9.62891 19.2188 9.63477 19.1758 9.63867C19.1328 9.63867 19.0898 9.63867 19.0469 9.63867C18.9609 9.63867 18.8828 9.64648 18.8125 9.66211C18.7422 9.67773 18.707 9.7207 18.707 9.79102C18.707 9.86133 18.7129 9.92773 18.7246 9.99023C18.7402 10.0527 18.7598 10.1152 18.7832 10.1777L20.2656 13.7637C20.293 13.8301 20.3184 13.875 20.3418 13.8984C20.3652 13.918 20.3945 13.9277 20.4297 13.9277C20.4688 13.9277 20.5059 13.8867 20.541 13.8047C20.5879 13.6953 20.6445 13.5566 20.7109 13.3887C20.7773 13.2168 20.8457 13.041 20.916 12.8613C20.9863 12.6777 21.0527 12.502 21.1152 12.334C21.1816 12.1621 21.2363 12.0195 21.2793 11.9062C21.2988 11.8828 21.3145 11.8438 21.3262 11.7891C21.3418 11.7305 21.3496 11.6797 21.3496 11.6367V11.5957C21.3418 11.5605 21.3223 11.4961 21.291 11.4023C21.2598 11.3086 21.2207 11.1992 21.1738 11.0742C21.1309 10.9453 21.082 10.8105 21.0273 10.6699C20.9766 10.5254 20.9238 10.3867 20.8691 10.2539C20.8145 10.1211 20.7598 10.002 20.7051 9.89648C20.6543 9.78711 20.6094 9.70508 20.5703 9.65039C20.5352 9.60742 20.5078 9.58594 20.4883 9.58594H19.9492C19.9062 9.58594 19.8809 9.57031 19.873 9.53906C19.8652 9.50781 19.8613 9.48242 19.8613 9.46289C19.8613 9.38867 19.8926 9.3418 19.9551 9.32227C20.0176 9.30273 20.0801 9.29297 20.1426 9.29297C20.2051 9.29297 20.2812 9.29688 20.3711 9.30469C20.4609 9.3125 20.5547 9.32031 20.6523 9.32812C20.7539 9.33594 20.8555 9.34375 20.957 9.35156C21.0625 9.35938 21.1602 9.36328 21.25 9.36328C21.3438 9.36328 21.4434 9.36133 21.5488 9.35742C21.6543 9.35352 21.7578 9.35156 21.8594 9.35156C21.9609 9.34766 22.0566 9.34375 22.1465 9.33984C22.2363 9.33594 22.3125 9.33398 22.375 9.33398C22.3867 9.33398 22.4043 9.33398 22.4277 9.33398C22.4551 9.33398 22.4805 9.33789 22.5039 9.3457C22.5273 9.34961 22.5488 9.35742 22.5684 9.36914C22.5879 9.37695 22.5977 9.38867 22.5977 9.4043C22.5977 9.48633 22.5625 9.53711 22.4922 9.55664C22.4219 9.57617 22.3379 9.58594 22.2402 9.58594H21.8887C21.7598 9.58594 21.6953 9.61719 21.6953 9.67969C21.6953 9.78516 21.7129 9.87695 21.748 9.95508C21.7832 10.0332 21.8223 10.123 21.8652 10.2246C21.8926 10.3066 21.9336 10.4258 21.9883 10.582C22.043 10.7383 22.1035 10.9141 22.1699 11.1094C22.2363 11.3008 22.3066 11.5039 22.3809 11.7188C22.4551 11.9297 22.5273 12.1348 22.5977 12.334C22.668 12.5293 22.7344 12.709 22.7969 12.873C22.8633 13.0332 22.918 13.1582 22.9609 13.248C22.9883 13.3262 23.0332 13.3652 23.0957 13.3652C23.1191 13.3652 23.1504 13.3418 23.1895 13.2949C23.2285 13.2441 23.2598 13.1836 23.2832 13.1133C23.3613 12.9141 23.4297 12.7344 23.4883 12.5742C23.5508 12.4141 23.6094 12.2559 23.6641 12.0996C23.7188 11.9395 23.7715 11.7734 23.8223 11.6016C23.877 11.4297 23.9375 11.2344 24.0039 11.0156C24.0508 10.8672 24.0996 10.7168 24.1504 10.5645C24.2012 10.4121 24.2266 10.2617 24.2266 10.1133C24.2266 10.0469 24.209 9.97852 24.1738 9.9082C24.1426 9.83789 24.1035 9.78125 24.0566 9.73828C24.0215 9.71094 23.9648 9.69141 23.8867 9.67969C23.8125 9.66797 23.7344 9.6543 23.6523 9.63867C23.5742 9.62305 23.5059 9.59961 23.4473 9.56836C23.3887 9.5332 23.3594 9.47852 23.3594 9.4043C23.3594 9.35742 23.3789 9.33008 23.418 9.32227C23.457 9.31445 23.498 9.31055 23.541 9.31055C23.6074 9.31055 23.6875 9.31445 23.7812 9.32227C23.8789 9.32617 23.9824 9.33398 24.0918 9.3457C24.2012 9.35352 24.3125 9.36133 24.4258 9.36914C24.5391 9.37305 24.6465 9.375 24.748 9.375C24.8965 9.375 25.0449 9.37109 25.1934 9.36328C25.3418 9.35156 25.4902 9.3418 25.6387 9.33398C25.6699 9.33398 25.7051 9.33594 25.7441 9.33984C25.7832 9.33984 25.8203 9.3457 25.8555 9.35742C25.8906 9.36523 25.9199 9.38086 25.9434 9.4043C25.9707 9.42773 25.9844 9.45898 25.9844 9.49805C25.9844 9.54492 25.9609 9.57031 25.9141 9.57422C25.7891 9.59766 25.6816 9.62109 25.5918 9.64453C25.5059 9.66406 25.4258 9.69141 25.3516 9.72656C25.2812 9.75781 25.2109 9.80078 25.1406 9.85547C25.0742 9.90625 25 9.97461 24.918 10.0605C24.7773 10.209 24.6426 10.4336 24.5137 10.7344C24.3848 11.0195 24.2734 11.2773 24.1797 11.5078C24.0859 11.7383 23.998 11.959 23.916 12.1699C23.834 12.3809 23.75 12.5918 23.6641 12.8027C23.582 13.0098 23.4863 13.2363 23.377 13.4824C23.3105 13.6309 23.2402 13.7812 23.166 13.9336C23.0957 14.0859 23.0352 14.2383 22.9844 14.3906C22.9688 14.4258 22.9512 14.4766 22.9316 14.543C22.9121 14.6055 22.8906 14.6699 22.8672 14.7363C22.8438 14.7988 22.8184 14.8535 22.791 14.9004C22.7637 14.9473 22.7324 14.9707 22.6973 14.9707C22.6309 14.9707 22.5742 14.9336 22.5273 14.8594C22.4844 14.7852 22.4492 14.707 22.4219 14.625C22.3984 14.5547 22.3652 14.4609 22.3223 14.3438C22.2793 14.2266 22.2305 14.0957 22.1758 13.9512C22.125 13.8066 22.0703 13.6543 22.0117 13.4941C21.957 13.334 21.9023 13.1797 21.8477 13.0312C21.793 12.8789 21.7422 12.7383 21.6953 12.6094C21.6484 12.4766 21.6113 12.3672 21.584 12.2812C21.5527 12.25 21.5312 12.2344 21.5195 12.2344C21.4922 12.2344 21.4727 12.25 21.4609 12.2812C21.4023 12.3633 21.3594 12.4492 21.332 12.5391C21.1523 12.9375 20.9688 13.3184 20.7812 13.6816C20.5977 14.041 20.4219 14.4062 20.2539 14.7773C20.2109 14.8633 20.1699 14.9316 20.1309 14.9824C20.0918 15.0332 20.0391 15.0586 19.9727 15.0586C19.875 15.0586 19.8066 15.0254 19.7676 14.959ZM31.0938 11.25H27.0391C26.9961 11.2656 26.9707 11.2832 26.9629 11.3027C26.9551 11.3184 26.9473 11.3516 26.9395 11.4023C26.9316 11.4375 26.9238 11.5137 26.916 11.6309C26.9121 11.748 26.9102 11.8809 26.9102 12.0293C26.9102 12.1777 26.9277 12.3203 26.9629 12.457C26.998 12.5938 27.0371 12.7285 27.0801 12.8613C27.2441 13.3457 27.5 13.7148 27.8477 13.9688C28.1992 14.2227 28.6602 14.3496 29.2305 14.3496C29.3164 14.3496 29.4102 14.334 29.5117 14.3027C29.6133 14.2715 29.7148 14.2324 29.8164 14.1855C29.918 14.1348 30.0156 14.0762 30.1094 14.0098C30.2031 13.9434 30.2852 13.875 30.3555 13.8047C30.4062 13.7578 30.4473 13.7051 30.4785 13.6465C30.5137 13.584 30.5566 13.5078 30.6074 13.418C30.623 13.4023 30.6445 13.3906 30.6719 13.3828C30.6992 13.3711 30.7227 13.3652 30.7422 13.3652C30.8125 13.3652 30.8594 13.3887 30.8828 13.4355C30.9102 13.4785 30.9238 13.5332 30.9238 13.5996C30.9238 13.6191 30.916 13.6465 30.9004 13.6816C30.8887 13.7129 30.873 13.7461 30.8535 13.7812C30.8379 13.8164 30.8184 13.8516 30.7949 13.8867C30.7754 13.918 30.7598 13.9414 30.748 13.957C30.5996 14.1797 30.4121 14.377 30.1855 14.5488C29.959 14.7168 29.6875 14.8535 29.3711 14.959C29.3008 14.9785 29.1797 14.9941 29.0078 15.0059C28.8398 15.0215 28.6562 15.0293 28.457 15.0293C28.2812 15.0293 28.0996 15.0059 27.9121 14.959C27.7285 14.9121 27.5488 14.8457 27.373 14.7598C27.1973 14.6738 27.0332 14.5742 26.8809 14.4609C26.7324 14.3477 26.6094 14.2227 26.5117 14.0859C26.3008 13.7969 26.1445 13.5039 26.043 13.207C25.9453 12.9102 25.8965 12.5781 25.8965 12.2109C25.8965 12.0781 25.9023 11.9531 25.9141 11.8359C25.9297 11.7148 25.9531 11.5977 25.9844 11.4844C26.0195 11.3711 26.0625 11.2598 26.1133 11.1504C26.1641 11.0371 26.2266 10.9219 26.3008 10.8047C26.4297 10.5898 26.5762 10.3926 26.7402 10.2129C26.9043 10.0332 27.0859 9.87891 27.2852 9.75C27.4844 9.62109 27.6992 9.52148 27.9297 9.45117C28.1602 9.38086 28.4082 9.3457 28.6738 9.3457C28.8965 9.3457 29.127 9.36914 29.3652 9.41602C29.6074 9.45898 29.8398 9.55664 30.0625 9.70898C30.1328 9.75977 30.2305 9.83789 30.3555 9.94336C30.4805 10.0488 30.6035 10.168 30.7246 10.3008C30.8457 10.4297 30.9512 10.5664 31.041 10.7109C31.1309 10.8555 31.1758 10.9941 31.1758 11.127C31.1758 11.1621 31.168 11.1914 31.1523 11.2148C31.1406 11.2383 31.1211 11.25 31.0938 11.25ZM27.1914 10.9336H29.7988C29.8652 10.9336 29.9043 10.9258 29.916 10.9102C29.9316 10.8906 29.9395 10.8711 29.9395 10.8516C29.9395 10.7617 29.916 10.668 29.8691 10.5703C29.8262 10.4727 29.7715 10.3809 29.7051 10.2949C29.6426 10.2051 29.5781 10.125 29.5117 10.0547C29.4453 9.98438 29.3887 9.92969 29.3418 9.89062C29.2168 9.78516 29.0918 9.7168 28.9668 9.68555C28.8418 9.6543 28.6992 9.63867 28.5391 9.63867C28.4727 9.63867 28.4102 9.64062 28.3516 9.64453C28.2969 9.64453 28.2422 9.64844 28.1875 9.65625C28.1328 9.66406 28.0781 9.67578 28.0234 9.69141C27.9688 9.70703 27.9082 9.73047 27.8418 9.76172C27.7676 9.79688 27.6855 9.85352 27.5957 9.93164C27.5098 10.0059 27.4277 10.0938 27.3496 10.1953C27.2754 10.293 27.2109 10.4004 27.1562 10.5176C27.1055 10.6348 27.0801 10.75 27.0801 10.8633C27.0801 10.9102 27.1172 10.9336 27.1914 10.9336ZM32.752 14.5312V11.3203C32.752 11.2031 32.75 11.0801 32.7461 10.9512C32.7461 10.8184 32.7383 10.6953 32.7227 10.582C32.7109 10.4688 32.6895 10.373 32.6582 10.2949C32.6309 10.2129 32.5918 10.1602 32.541 10.1367C32.4473 10.0938 32.332 10.0723 32.1953 10.0723C32.1055 10.0723 32.0215 10.0762 31.9434 10.084C31.8691 10.0918 31.8008 10.0957 31.7383 10.0957C31.7188 10.0957 31.7012 10.0879 31.6855 10.0723C31.6699 10.0566 31.6621 10.041 31.6621 10.0254C31.6621 9.98242 31.6758 9.95703 31.7031 9.94922C31.8242 9.87891 31.9473 9.83008 32.0723 9.80273C32.1973 9.77539 32.3262 9.74023 32.459 9.69727C32.5762 9.66211 32.6953 9.625 32.8164 9.58594C32.9375 9.54688 33.0488 9.49609 33.1504 9.43359C33.2207 9.39844 33.2852 9.36133 33.3438 9.32227C33.4023 9.2832 33.4766 9.26367 33.5664 9.26367C33.5898 9.26367 33.6113 9.2793 33.6309 9.31055C33.6543 9.33789 33.666 9.35938 33.666 9.375V9.69727C33.666 9.72852 33.666 9.76562 33.666 9.80859C33.6699 9.85156 33.6719 9.89453 33.6719 9.9375C33.6758 9.98047 33.6797 10.0215 33.6836 10.0605C33.6875 10.0957 33.6914 10.1211 33.6953 10.1367C33.6992 10.1523 33.7051 10.1641 33.7129 10.1719L33.7188 10.1777C33.7422 10.1777 33.7637 10.166 33.7832 10.1426C33.8027 10.1152 33.8242 10.082 33.8477 10.043C33.875 10 33.9043 9.95312 33.9355 9.90234C33.9707 9.85156 34.0156 9.80078 34.0703 9.75C34.1445 9.67578 34.2266 9.60742 34.3164 9.54492C34.4102 9.47852 34.5059 9.42188 34.6035 9.375C34.7051 9.32812 34.8066 9.29102 34.9082 9.26367C35.0137 9.23633 35.1172 9.22266 35.2188 9.22266C35.3672 9.22266 35.5195 9.23633 35.6758 9.26367C35.832 9.28711 35.9727 9.33203 36.0977 9.39844C36.2266 9.46094 36.332 9.55078 36.4141 9.66797C36.4961 9.78516 36.5371 9.93359 36.5371 10.1133C36.5371 10.2109 36.5156 10.3008 36.4727 10.3828C36.4336 10.4648 36.3789 10.5352 36.3086 10.5938C36.2422 10.6523 36.1641 10.6992 36.0742 10.7344C35.9883 10.7656 35.8984 10.7812 35.8047 10.7812C35.7422 10.7812 35.6758 10.7715 35.6055 10.752C35.5352 10.7324 35.4902 10.709 35.4707 10.6816C35.3496 10.5723 35.2656 10.4238 35.2188 10.2363C35.1992 10.1309 35.1855 10.043 35.1777 9.97266C35.1738 9.89844 35.1582 9.8418 35.1309 9.80273C35.1074 9.75977 35.0664 9.73047 35.0078 9.71484C34.9492 9.69531 34.8574 9.68555 34.7324 9.68555C34.6309 9.68555 34.5254 9.71289 34.416 9.76758C34.3105 9.81836 34.2109 9.88477 34.1172 9.9668C34.0273 10.0488 33.9492 10.1406 33.8828 10.2422C33.8164 10.3398 33.7773 10.4355 33.7656 10.5293C33.7461 10.6152 33.7344 10.709 33.7305 10.8105C33.7305 10.9082 33.7305 11.0098 33.7305 11.1152V14.6367C33.7539 14.6875 33.7969 14.7207 33.8594 14.7363C33.9219 14.748 33.9922 14.7539 34.0703 14.7539C34.0938 14.7539 34.125 14.7539 34.1641 14.7539C34.207 14.75 34.25 14.748 34.293 14.748C34.3398 14.7441 34.3809 14.7422 34.416 14.7422C34.4512 14.7383 34.4746 14.7363 34.4863 14.7363C34.5762 14.7363 34.6484 14.748 34.7031 14.7715C34.7617 14.791 34.791 14.8359 34.791 14.9062C34.791 14.9531 34.7676 14.9961 34.7207 15.0352C34.6777 15.0742 34.6348 15.0957 34.5918 15.0996C34.377 15.0645 34.1562 15.0391 33.9297 15.0234C33.707 15.0078 33.4844 15 33.2617 15C33.0273 15 32.8086 15.0098 32.6055 15.0293C32.4023 15.0488 32.1914 15.0586 31.9727 15.0586C31.9297 15.0586 31.8789 15.043 31.8203 15.0117C31.7656 14.9805 31.7383 14.9395 31.7383 14.8887C31.7383 14.8574 31.748 14.8301 31.7676 14.8066C31.7871 14.7832 31.8105 14.7656 31.8379 14.7539C31.8691 14.7383 31.8984 14.7266 31.9258 14.7188C31.957 14.7109 31.9824 14.707 32.002 14.707C32.0449 14.707 32.0859 14.709 32.125 14.7129C32.168 14.7168 32.2129 14.7207 32.2598 14.7246C32.2949 14.7324 32.332 14.7383 32.3711 14.7422C32.4102 14.7461 32.4473 14.748 32.4824 14.748C32.5059 14.748 32.5312 14.7422 32.5586 14.7305C32.5898 14.7188 32.6191 14.7031 32.6465 14.6836C32.6777 14.6602 32.7031 14.6367 32.7227 14.6133C32.7422 14.5859 32.752 14.5586 32.752 14.5312ZM41.4941 14.5312V11.2266C41.4941 10.8125 41.3867 10.5 41.1719 10.2891C40.9609 10.0781 40.6699 9.97266 40.2988 9.97266C40.123 9.97266 39.9629 9.99023 39.8184 10.0254C39.6738 10.0605 39.5605 10.1113 39.4785 10.1777C39.3535 10.2793 39.25 10.3789 39.168 10.4766C39.0898 10.5742 39.0273 10.6797 38.9805 10.793C38.9336 10.9023 38.9004 11.0254 38.8809 11.1621C38.8613 11.2988 38.8516 11.457 38.8516 11.6367V14.4199C38.8516 14.5215 38.8809 14.5918 38.9395 14.6309C38.998 14.666 39.1035 14.6836 39.2559 14.6836H39.5898C39.7305 14.6836 39.8008 14.7285 39.8008 14.8184C39.8008 14.9355 39.7441 15.002 39.6309 15.0176H39.3145C39.166 15.0176 39.0137 15.0137 38.8574 15.0059C38.7051 15.002 38.5371 15 38.3535 15C38.2832 15 38.1914 15.002 38.0781 15.0059C37.9688 15.0098 37.8516 15.0117 37.7266 15.0117C37.6016 15.0156 37.4766 15.0195 37.3516 15.0234C37.2266 15.0273 37.1172 15.0293 37.0234 15.0293C36.9375 15.0293 36.8945 14.9863 36.8945 14.9004C36.8945 14.8027 36.9453 14.748 37.0469 14.7363C37.1758 14.7246 37.3047 14.7188 37.4336 14.7188H37.7676C37.7871 14.7188 37.8086 14.709 37.832 14.6895C37.8555 14.6699 37.8672 14.6445 37.8672 14.6133V12.1523C37.8672 12.0195 37.875 11.8574 37.8906 11.666C37.9102 11.4746 37.9199 11.2812 37.9199 11.0859C37.9199 10.9922 37.916 10.9023 37.9082 10.8164C37.9004 10.7266 37.8867 10.6445 37.8672 10.5703C37.8477 10.4922 37.8164 10.4238 37.7734 10.3652C37.7344 10.3066 37.6836 10.2598 37.6211 10.2246C37.6016 10.209 37.5547 10.1973 37.4805 10.1895C37.4062 10.1816 37.3281 10.1777 37.2461 10.1777C37.1797 10.1777 37.1152 10.1816 37.0527 10.1895C36.9941 10.1934 36.9551 10.1953 36.9355 10.1953C36.8613 10.1953 36.8145 10.1855 36.7949 10.166C36.7793 10.1504 36.7715 10.1367 36.7715 10.125C36.7715 10.0977 36.7891 10.0762 36.8242 10.0605C36.8633 10.0449 36.916 10.0215 36.9824 9.99023C37.0059 9.98242 37.043 9.97266 37.0938 9.96094C37.1445 9.94922 37.1953 9.9375 37.2461 9.92578C37.3008 9.91406 37.3496 9.9043 37.3926 9.89648C37.4395 9.88477 37.4688 9.87891 37.4805 9.87891C37.6758 9.82812 37.8691 9.75391 38.0605 9.65625C38.2559 9.55859 38.4473 9.47461 38.6348 9.4043C38.6543 9.39258 38.6777 9.38281 38.7051 9.375C38.7207 9.37109 38.7344 9.36719 38.7461 9.36328C38.8086 9.38672 38.8398 9.4375 38.8398 9.51562C38.8398 9.59766 38.8301 9.67578 38.8105 9.75C38.791 9.82422 38.7812 9.89062 38.7812 9.94922C38.7812 9.98438 38.7812 10.0371 38.7812 10.1074C38.7852 10.1738 38.791 10.2422 38.7988 10.3125C38.8066 10.3789 38.8145 10.4395 38.8223 10.4941C38.834 10.5449 38.8496 10.5703 38.8691 10.5703C38.8848 10.5703 38.918 10.5391 38.9688 10.4766C39.0234 10.4102 39.0879 10.332 39.1621 10.2422C39.2363 10.1484 39.3184 10.0508 39.4082 9.94922C39.502 9.84766 39.5957 9.75977 39.6895 9.68555C39.877 9.54883 40.0625 9.44727 40.2461 9.38086C40.4336 9.31445 40.6484 9.28125 40.8906 9.28125C41.207 9.28125 41.4629 9.32422 41.6582 9.41016C41.8574 9.49609 42.0137 9.60938 42.127 9.75C42.2441 9.88672 42.3262 10.043 42.373 10.2188C42.4199 10.3906 42.4492 10.5625 42.4609 10.7344C42.4688 10.8242 42.4746 10.916 42.4785 11.0098C42.4863 11.0996 42.4902 11.1895 42.4902 11.2793V13.459C42.4902 13.5566 42.4863 13.6465 42.4785 13.7285C42.4746 13.8066 42.4688 13.8848 42.4609 13.9629C42.457 14.0371 42.4512 14.1133 42.4434 14.1914C42.4395 14.2656 42.4375 14.3457 42.4375 14.4316C42.4375 14.4785 42.4473 14.5156 42.4668 14.543C42.4902 14.5664 42.5312 14.584 42.5898 14.5957C42.6484 14.6074 42.7285 14.6152 42.8301 14.6191C42.9316 14.623 43.0605 14.625 43.2168 14.625C43.2832 14.625 43.3301 14.6523 43.3574 14.707C43.3887 14.7578 43.4043 14.8047 43.4043 14.8477C43.4043 14.8906 43.3926 14.9238 43.3691 14.9473C43.3457 14.9668 43.3164 14.9824 43.2812 14.9941C43.25 15.0059 43.2148 15.0117 43.1758 15.0117C43.1367 15.0156 43.0996 15.0176 43.0645 15.0176C42.8926 15.0176 42.6992 15.0117 42.4844 15C42.2734 14.9922 42.0684 14.9883 41.8691 14.9883C41.8066 14.9883 41.7402 14.9902 41.6699 14.9941C41.6035 14.998 41.5234 15 41.4297 15C41.3359 15.0039 41.2246 15.0078 41.0957 15.0117C40.9707 15.0156 40.8164 15.0176 40.6328 15.0176C40.5742 15.0176 40.5352 15.002 40.5156 14.9707C40.5 14.9395 40.4922 14.8984 40.4922 14.8477C40.4922 14.75 40.5391 14.6953 40.6328 14.6836C40.6758 14.6797 40.7188 14.6777 40.7617 14.6777C40.8086 14.6777 40.8574 14.6777 40.9082 14.6777C40.9824 14.6777 41.0547 14.6758 41.125 14.6719C41.1953 14.668 41.2578 14.6602 41.3125 14.6484C41.3672 14.6367 41.4102 14.6211 41.4414 14.6016C41.4766 14.582 41.4941 14.5586 41.4941 14.5312ZM43.8613 12.2637C43.8613 11.8496 43.9297 11.4785 44.0664 11.1504C44.207 10.8184 44.4004 10.5371 44.6465 10.3066C44.8926 10.0762 45.1855 9.89844 45.5254 9.77344C45.8652 9.64844 46.2383 9.58594 46.6445 9.58594C46.7344 9.58594 46.8281 9.5957 46.9258 9.61523C47.0234 9.63477 47.1211 9.66211 47.2188 9.69727C47.3203 9.72852 47.418 9.76562 47.5117 9.80859C47.6094 9.85156 47.6992 9.89648 47.7812 9.94336C48.2461 10.2012 48.5918 10.5352 48.8184 10.9453C49.0488 11.3555 49.1641 11.8242 49.1641 12.3516C49.1641 12.707 49.1016 13.0488 48.9766 13.377C48.8555 13.7012 48.6699 13.9961 48.4199 14.2617C48.1699 14.5195 47.8848 14.707 47.5645 14.8242C47.2441 14.9414 46.9082 15 46.5566 15C46.2988 15 46.0449 14.9766 45.7949 14.9297C45.5488 14.8828 45.3027 14.7715 45.0566 14.5957C44.6465 14.2988 44.3438 13.9609 44.1484 13.582C43.957 13.2031 43.8613 12.7637 43.8613 12.2637ZM44.8633 12.293C44.8633 12.4492 44.877 12.6172 44.9043 12.7969C44.9316 12.9766 44.9727 13.1582 45.0273 13.3418C45.0859 13.5215 45.1582 13.6973 45.2441 13.8691C45.334 14.0371 45.4395 14.1875 45.5605 14.3203C45.6816 14.4492 45.8223 14.5527 45.9824 14.6309C46.1426 14.709 46.3203 14.748 46.5156 14.748C46.6406 14.748 46.75 14.7363 46.8438 14.7129C46.9375 14.6855 47.0215 14.6484 47.0957 14.6016C47.1738 14.5547 47.2441 14.5 47.3066 14.4375C47.373 14.3711 47.4375 14.2988 47.5 14.2207C47.6094 14.0801 47.7031 13.9258 47.7812 13.7578C47.8594 13.5898 47.9238 13.418 47.9746 13.2422C48.0254 13.0664 48.0605 12.8926 48.0801 12.7207C48.1035 12.5449 48.1152 12.3789 48.1152 12.2227C48.1152 12.0742 48.0996 11.9102 48.0684 11.7305C48.0371 11.5469 47.9863 11.3633 47.916 11.1797C47.8496 10.9922 47.7637 10.8105 47.6582 10.6348C47.5527 10.459 47.4258 10.3027 47.2773 10.166C47.1641 10.0566 47.043 9.97656 46.9141 9.92578C46.7852 9.875 46.6797 9.84961 46.5977 9.84961C46.4141 9.84961 46.2539 9.86914 46.1172 9.9082C45.9805 9.94336 45.8594 9.99805 45.7539 10.0723C45.6484 10.1465 45.5508 10.2402 45.4609 10.3535C45.375 10.4668 45.2871 10.5996 45.1973 10.752C45.0449 11.0098 44.9512 11.2656 44.916 11.5195C44.8809 11.7734 44.8633 12.0312 44.8633 12.293ZM50.5117 13.3652C50.5117 12.8105 50.5254 12.2656 50.5527 11.7305C50.5801 11.1914 50.5977 10.6426 50.6055 10.084C50.4531 10.084 50.3066 10.0957 50.166 10.1191C50.0293 10.1426 49.8926 10.1543 49.7559 10.1543C49.7129 10.1543 49.6699 10.1504 49.627 10.1426C49.584 10.1348 49.5625 10.1074 49.5625 10.0605C49.5625 10.0449 49.5664 10.0332 49.5742 10.0254C49.5859 10.0176 49.6016 10.0039 49.6211 9.98438C49.8203 9.80469 50.0117 9.62695 50.1953 9.45117C50.3828 9.27539 50.5645 9.0918 50.7402 8.90039C50.791 8.8418 50.8438 8.77734 50.8984 8.70703C50.957 8.63672 51.0156 8.56641 51.0742 8.49609C51.1367 8.42188 51.1992 8.34766 51.2617 8.27344C51.3281 8.19922 51.3926 8.13086 51.4551 8.06836C51.4707 8.05273 51.4922 8.04492 51.5195 8.04492C51.5547 8.04492 51.5781 8.06836 51.5898 8.11523L51.5195 9.4043C51.5195 9.47852 51.5352 9.51562 51.5664 9.51562L53.0781 9.4043C53.1133 9.4043 53.1406 9.41406 53.1602 9.43359C53.1797 9.45312 53.1934 9.47852 53.2012 9.50977C53.209 9.53711 53.2129 9.56641 53.2129 9.59766C53.2168 9.62891 53.2188 9.65625 53.2188 9.67969C53.2188 9.78516 53.2051 9.86328 53.1777 9.91406C53.1504 9.96094 53.0742 9.98438 52.9492 9.98438H51.5371C51.5059 9.98438 51.4824 10.0039 51.4668 10.043C51.459 10.0586 51.4551 10.0762 51.4551 10.0957V13.3301C51.4551 13.4668 51.4863 13.6113 51.5488 13.7637C51.6152 13.916 51.7168 14.0605 51.8535 14.1973C51.916 14.2598 51.998 14.3125 52.0996 14.3555C52.2012 14.3984 52.2988 14.4199 52.3926 14.4199C52.6035 14.4199 52.7715 14.3945 52.8965 14.3438C53.0215 14.2891 53.123 14.2207 53.2012 14.1387C53.2832 14.0566 53.3496 13.9688 53.4004 13.875C53.4512 13.7773 53.5098 13.6855 53.5762 13.5996C53.5918 13.5605 53.6094 13.541 53.6289 13.541C53.6484 13.541 53.6602 13.5547 53.6641 13.582C53.6719 13.6055 53.6758 13.625 53.6758 13.6406C53.6758 13.7305 53.6465 13.8379 53.5879 13.9629C53.5332 14.084 53.459 14.207 53.3652 14.332C53.2754 14.4531 53.1738 14.5645 53.0605 14.666C52.9473 14.7637 52.8359 14.834 52.7266 14.877C52.5312 14.959 52.3242 15 52.1055 15C51.8555 15 51.6309 14.9492 51.4316 14.8477C51.2363 14.7461 51.0703 14.6172 50.9336 14.4609C50.7969 14.3008 50.6914 14.125 50.6172 13.9336C50.5469 13.7383 50.5117 13.5488 50.5117 13.3652ZM59.3711 11.25H55.3164C55.2734 11.2656 55.248 11.2832 55.2402 11.3027C55.2324 11.3184 55.2246 11.3516 55.2168 11.4023C55.209 11.4375 55.2012 11.5137 55.1934 11.6309C55.1895 11.748 55.1875 11.8809 55.1875 12.0293C55.1875 12.1777 55.2051 12.3203 55.2402 12.457C55.2754 12.5938 55.3145 12.7285 55.3574 12.8613C55.5215 13.3457 55.7773 13.7148 56.125 13.9688C56.4766 14.2227 56.9375 14.3496 57.5078 14.3496C57.5938 14.3496 57.6875 14.334 57.7891 14.3027C57.8906 14.2715 57.9922 14.2324 58.0938 14.1855C58.1953 14.1348 58.293 14.0762 58.3867 14.0098C58.4805 13.9434 58.5625 13.875 58.6328 13.8047C58.6836 13.7578 58.7246 13.7051 58.7559 13.6465C58.791 13.584 58.834 13.5078 58.8848 13.418C58.9004 13.4023 58.9219 13.3906 58.9492 13.3828C58.9766 13.3711 59 13.3652 59.0195 13.3652C59.0898 13.3652 59.1367 13.3887 59.1602 13.4355C59.1875 13.4785 59.2012 13.5332 59.2012 13.5996C59.2012 13.6191 59.1934 13.6465 59.1777 13.6816C59.166 13.7129 59.1504 13.7461 59.1309 13.7812C59.1152 13.8164 59.0957 13.8516 59.0723 13.8867C59.0527 13.918 59.0371 13.9414 59.0254 13.957C58.877 14.1797 58.6895 14.377 58.4629 14.5488C58.2363 14.7168 57.9648 14.8535 57.6484 14.959C57.5781 14.9785 57.457 14.9941 57.2852 15.0059C57.1172 15.0215 56.9336 15.0293 56.7344 15.0293C56.5586 15.0293 56.377 15.0059 56.1895 14.959C56.0059 14.9121 55.8262 14.8457 55.6504 14.7598C55.4746 14.6738 55.3105 14.5742 55.1582 14.4609C55.0098 14.3477 54.8867 14.2227 54.7891 14.0859C54.5781 13.7969 54.4219 13.5039 54.3203 13.207C54.2227 12.9102 54.1738 12.5781 54.1738 12.2109C54.1738 12.0781 54.1797 11.9531 54.1914 11.8359C54.207 11.7148 54.2305 11.5977 54.2617 11.4844C54.2969 11.3711 54.3398 11.2598 54.3906 11.1504C54.4414 11.0371 54.5039 10.9219 54.5781 10.8047C54.707 10.5898 54.8535 10.3926 55.0176 10.2129C55.1816 10.0332 55.3633 9.87891 55.5625 9.75C55.7617 9.62109 55.9766 9.52148 56.207 9.45117C56.4375 9.38086 56.6855 9.3457 56.9512 9.3457C57.1738 9.3457 57.4043 9.36914 57.6426 9.41602C57.8848 9.45898 58.1172 9.55664 58.3398 9.70898C58.4102 9.75977 58.5078 9.83789 58.6328 9.94336C58.7578 10.0488 58.8809 10.168 59.002 10.3008C59.123 10.4297 59.2285 10.5664 59.3184 10.7109C59.4082 10.8555 59.4531 10.9941 59.4531 11.127C59.4531 11.1621 59.4453 11.1914 59.4297 11.2148C59.418 11.2383 59.3984 11.25 59.3711 11.25ZM55.4688 10.9336H58.0762C58.1426 10.9336 58.1816 10.9258 58.1934 10.9102C58.209 10.8906 58.2168 10.8711 58.2168 10.8516C58.2168 10.7617 58.1934 10.668 58.1465 10.5703C58.1035 10.4727 58.0488 10.3809 57.9824 10.2949C57.9199 10.2051 57.8555 10.125 57.7891 10.0547C57.7227 9.98438 57.666 9.92969 57.6191 9.89062C57.4941 9.78516 57.3691 9.7168 57.2441 9.68555C57.1191 9.6543 56.9766 9.63867 56.8164 9.63867C56.75 9.63867 56.6875 9.64062 56.6289 9.64453C56.5742 9.64453 56.5195 9.64844 56.4648 9.65625C56.4102 9.66406 56.3555 9.67578 56.3008 9.69141C56.2461 9.70703 56.1855 9.73047 56.1191 9.76172C56.0449 9.79688 55.9629 9.85352 55.873 9.93164C55.7871 10.0059 55.7051 10.0938 55.627 10.1953C55.5527 10.293 55.4883 10.4004 55.4336 10.5176C55.3828 10.6348 55.3574 10.75 55.3574 10.8633C55.3574 10.9102 55.3945 10.9336 55.4688 10.9336ZM60.1855 14.1562C60.1855 14.0508 60.209 13.9473 60.2559 13.8457C60.3066 13.7402 60.3438 13.6426 60.3672 13.5527C60.3672 13.5371 60.3711 13.5059 60.3789 13.459C60.3906 13.4082 60.4023 13.3555 60.4141 13.3008C60.4297 13.2422 60.4434 13.1895 60.4551 13.1426C60.4668 13.0957 60.4746 13.0625 60.4785 13.043C60.4902 12.9883 60.5176 12.9609 60.5605 12.9609C60.623 12.9609 60.6562 12.998 60.6602 13.0723C60.668 13.127 60.6699 13.1797 60.666 13.2305C60.666 13.2773 60.6719 13.334 60.6836 13.4004C60.7188 13.584 60.7676 13.7578 60.8301 13.9219C60.8965 14.082 60.9805 14.2246 61.082 14.3496C61.1875 14.4746 61.3125 14.5742 61.457 14.6484C61.6055 14.7188 61.7793 14.7539 61.9785 14.7539C62.123 14.7539 62.2617 14.7324 62.3945 14.6895C62.5273 14.6426 62.6445 14.5781 62.7461 14.4961C62.8516 14.4141 62.9336 14.3125 62.9922 14.1914C63.0547 14.0703 63.0859 13.9336 63.0859 13.7812C63.0859 13.543 63.043 13.3477 62.957 13.1953C62.875 13.043 62.7656 12.916 62.6289 12.8145C62.4961 12.7129 62.3418 12.6309 62.166 12.5684C61.9941 12.502 61.8164 12.4395 61.6328 12.3809C61.4531 12.3184 61.2754 12.252 61.0996 12.1816C60.9277 12.1074 60.7734 12.0117 60.6367 11.8945C60.5039 11.7734 60.3945 11.623 60.3086 11.4434C60.2266 11.2637 60.1855 11.0371 60.1855 10.7637C60.1855 10.5957 60.2148 10.4512 60.2734 10.3301C60.332 10.2051 60.3848 10.1055 60.4316 10.0312C60.4902 9.94141 60.5645 9.85156 60.6543 9.76172C60.7441 9.66797 60.8477 9.58594 60.9648 9.51562C61.082 9.44141 61.2129 9.38086 61.3574 9.33398C61.5059 9.28711 61.666 9.26367 61.8379 9.26367C61.9902 9.26367 62.1543 9.29492 62.3301 9.35742C62.5098 9.41602 62.666 9.5 62.7988 9.60938C62.8418 9.64453 62.8848 9.68359 62.9277 9.72656C62.9707 9.76953 63.0137 9.79102 63.0566 9.79102C63.1113 9.79102 63.1562 9.77344 63.1914 9.73828C63.2266 9.69922 63.2617 9.64844 63.2969 9.58594C63.3047 9.57812 63.3125 9.57422 63.3203 9.57422C63.332 9.57031 63.3418 9.56836 63.3496 9.56836C63.3613 9.56836 63.3691 9.58008 63.373 9.60352C63.3809 9.62305 63.3867 9.64648 63.3906 9.67383C63.3984 9.69727 63.4023 9.72266 63.4023 9.75C63.4062 9.77344 63.4082 9.79102 63.4082 9.80273C63.4082 9.81445 63.4023 9.85352 63.3906 9.91992C63.3828 9.98633 63.3691 10.0664 63.3496 10.1602C63.334 10.25 63.3145 10.3477 63.291 10.4531C63.2715 10.5547 63.248 10.6504 63.2207 10.7402C63.1973 10.8262 63.1719 10.8984 63.1445 10.957C63.1211 11.0156 63.0977 11.0449 63.0742 11.0449C63.0664 11.0449 63.0586 11.043 63.0508 11.0391C63.0352 11.0312 63.0273 11.0234 63.0273 11.0156C62.9961 10.9609 62.9746 10.9141 62.9629 10.875C62.9512 10.8359 62.9414 10.7988 62.9336 10.7637C62.9297 10.7285 62.9258 10.6934 62.9219 10.6582C62.9219 10.6191 62.916 10.5762 62.9043 10.5293C62.8965 10.498 62.8887 10.4688 62.8809 10.4414C62.873 10.4102 62.8633 10.3828 62.8516 10.3594C62.8008 10.2305 62.748 10.125 62.6934 10.043C62.6387 9.96094 62.5625 9.87695 62.4648 9.79102C62.3984 9.72461 62.3379 9.67383 62.2832 9.63867C62.2324 9.59961 62.1777 9.57227 62.1191 9.55664C62.0605 9.53711 61.9922 9.52539 61.9141 9.52148C61.8359 9.51758 61.7402 9.51562 61.627 9.51562C61.5176 9.51562 61.416 9.54102 61.3223 9.5918C61.2324 9.63867 61.1543 9.70312 61.0879 9.78516C61.0215 9.86719 60.9688 9.96289 60.9297 10.0723C60.8945 10.1777 60.877 10.2891 60.877 10.4062C60.877 10.6016 60.918 10.7617 61 10.8867C61.0859 11.0078 61.1973 11.1113 61.334 11.1973C61.4746 11.2793 61.6328 11.3496 61.8086 11.4082C61.9844 11.4668 62.1621 11.5273 62.3418 11.5898C62.5254 11.6523 62.7051 11.7266 62.8809 11.8125C63.0566 11.8945 63.2129 12.0039 63.3496 12.1406C63.4902 12.2734 63.6016 12.4414 63.6836 12.6445C63.7695 12.8438 63.8125 13.0918 63.8125 13.3887C63.8125 13.584 63.7617 13.7812 63.6602 13.9805C63.5586 14.1758 63.4336 14.3594 63.2852 14.5312C63.2188 14.6094 63.1289 14.6816 63.0156 14.748C62.9062 14.8105 62.7832 14.8652 62.6465 14.9121C62.5137 14.959 62.373 14.9941 62.2246 15.0176C62.0801 15.0449 61.9375 15.0586 61.7969 15.0586C61.6562 15.0586 61.4941 15.0273 61.3105 14.9648C61.127 14.9023 60.9512 14.8242 60.7832 14.7305C60.6152 14.6367 60.4727 14.5391 60.3555 14.4375C60.2422 14.332 60.1855 14.2383 60.1855 14.1562Z" fill="#F86781"/>
</svg>
