<svg width="226" height="35" viewBox="0 0 226 35" fill="none" xmlns="http://www.w3.org/2000/svg">
<path d="M0.664062 33.6719C0.664062 33.1875 1.00781 32.9453 1.69531 32.9453C2.17969 32.9453 2.67969 32.9062 3.19531 32.8281C3.71094 32.7344 4.19531 32.625 4.64844 32.5C4.89844 32.4375 5.11719 32.3438 5.30469 32.2188C5.49219 32.0781 5.58594 31.8359 5.58594 31.4922V2.6875C5.49219 2.46875 5.3125 2.28125 5.04688 2.125C4.79688 1.96875 4.5 1.84375 4.15625 1.75C3.8125 1.65625 3.44531 1.57813 3.05469 1.51562C2.67969 1.45312 2.3125 1.39844 1.95312 1.35156C1.60938 1.30469 1.28906 1.25781 0.992188 1.21094C0.710938 1.14844 0.5 1.07812 0.359375 1C0.25 0.96875 0.195312 0.859375 0.195312 0.671875C0.195312 0.53125 0.25 0.453125 0.359375 0.4375C0.421875 0.40625 0.515625 0.375 0.640625 0.34375C0.765625 0.3125 1.00781 0.296875 1.36719 0.296875C1.49219 0.296875 1.78125 0.3125 2.23438 0.34375C2.70312 0.359375 3.21094 0.390625 3.75781 0.4375C4.30469 0.46875 4.82031 0.5 5.30469 0.53125C5.80469 0.546875 6.14062 0.554688 6.3125 0.554688H9.47656C9.53906 0.554688 9.6875 0.546875 9.92188 0.53125C10.1719 0.515625 10.4375 0.507812 10.7188 0.507812C11 0.492187 11.25 0.476563 11.4688 0.460938C11.7031 0.445312 11.8359 0.4375 11.8672 0.4375C12.3984 0.359375 12.9297 0.3125 13.4609 0.296875C13.9922 0.28125 14.5312 0.273438 15.0781 0.273438C16.0312 0.273438 17.0078 0.3125 18.0078 0.390625C19.0234 0.453125 19.9766 0.65625 20.8672 1C21.7734 1.34375 22.5938 1.80469 23.3281 2.38281C24.0625 2.94531 24.6875 3.59375 25.2031 4.32812C25.7344 5.04688 26.1406 5.83594 26.4219 6.69531C26.7188 7.55469 26.8672 8.4375 26.8672 9.34375C26.8672 10.9375 26.5781 12.3203 26 13.4922C25.4375 14.6484 24.5234 15.6875 23.2578 16.6094C22.4766 17.1719 21.5234 17.6484 20.3984 18.0391C19.2891 18.4141 18.0234 18.6016 16.6016 18.6016C15.9922 18.6016 15.3906 18.5938 14.7969 18.5781C14.2031 18.5469 13.5938 18.5 12.9688 18.4375C12.8906 18.4375 12.7969 18.4219 12.6875 18.3906C12.5781 18.3594 12.4375 18.3438 12.2656 18.3438H11.8203C11.6797 18.3438 11.6016 18.375 11.5859 18.4375C11.3359 18.5156 11.125 18.6562 10.9531 18.8594C10.7812 19.0469 10.6953 19.375 10.6953 19.8438V24.3438C10.6953 25.4062 10.6484 26.5625 10.5547 27.8125C10.4766 29.0625 10.4375 30.2578 10.4375 31.3984C10.4375 31.7266 10.5078 31.9609 10.6484 32.1016C10.7891 32.2266 10.9922 32.3203 11.2578 32.3828C11.9609 32.5547 12.625 32.6797 13.25 32.7578C13.875 32.8203 14.5234 32.9219 15.1953 33.0625C15.4297 33.1406 15.5703 33.2266 15.6172 33.3203C15.6797 33.3984 15.7109 33.4922 15.7109 33.6016C15.7109 33.6953 15.6641 33.7734 15.5703 33.8359C15.4922 33.8828 15.3906 33.9297 15.2656 33.9766C15.1562 34.0078 15.0391 34.0312 14.9141 34.0469C14.8047 34.0625 14.7109 34.0703 14.6328 34.0703C14.4453 34.0703 14.2109 34.0625 13.9297 34.0469C13.6641 34.0469 13.3906 34.0391 13.1094 34.0234C12.8438 34.0234 12.5859 34.0156 12.3359 34C12.1016 34 11.9141 34 11.7734 34H4.69531C4.10156 34 3.53125 34.0078 2.98438 34.0234C2.45312 34.0547 2.0625 34.0703 1.8125 34.0703H0.945312C0.757812 34.0547 0.664062 33.9219 0.664062 33.6719ZM11.1406 17.5469C11.4219 17.625 11.6953 17.6953 11.9609 17.7578C12.2422 17.8047 12.5859 17.8281 12.9922 17.8281C13.6953 17.8281 14.4062 17.75 15.125 17.5938C15.8438 17.4219 16.5 17.1719 17.0938 16.8438C17.6562 16.5469 18.2031 16.1562 18.7344 15.6719C19.2812 15.1875 19.7656 14.625 20.1875 13.9844C20.6094 13.3281 20.9453 12.6016 21.1953 11.8047C21.4609 10.9922 21.5938 10.1094 21.5938 9.15625C21.5938 8.15625 21.4844 7.27344 21.2656 6.50781C21.0469 5.72656 20.7188 5.03906 20.2812 4.44531C19.8594 3.85156 19.3203 3.33594 18.6641 2.89844C18.0234 2.44531 17.2734 2.03906 16.4141 1.67969C15.9453 1.47656 15.4531 1.33594 14.9375 1.25781C14.4375 1.16406 13.9141 1.11719 13.3672 1.11719C12.8672 1.11719 12.4062 1.14062 11.9844 1.1875C11.5781 1.21875 11.1484 1.32031 10.6953 1.49219V16.3984C10.6953 16.6484 10.7109 16.8828 10.7422 17.1016C10.7891 17.3203 10.9219 17.4688 11.1406 17.5469ZM28.4609 23.0547C28.4609 21.3984 28.7344 19.9141 29.2812 18.6016C29.8438 17.2734 30.6172 16.1484 31.6016 15.2266C32.5859 14.3047 33.7578 13.5938 35.1172 13.0938C36.4766 12.5938 37.9688 12.3438 39.5938 12.3438C39.9531 12.3438 40.3281 12.3828 40.7188 12.4609C41.1094 12.5391 41.5 12.6484 41.8906 12.7891C42.2969 12.9141 42.6875 13.0625 43.0625 13.2344C43.4531 13.4062 43.8125 13.5859 44.1406 13.7734C46 14.8047 47.3828 16.1406 48.2891 17.7812C49.2109 19.4219 49.6719 21.2969 49.6719 23.4062C49.6719 24.8281 49.4219 26.1953 48.9219 27.5078C48.4375 28.8047 47.6953 29.9844 46.6953 31.0469C45.6953 32.0781 44.5547 32.8281 43.2734 33.2969C41.9922 33.7656 40.6484 34 39.2422 34C38.2109 34 37.1953 33.9062 36.1953 33.7188C35.2109 33.5312 34.2266 33.0859 33.2422 32.3828C31.6016 31.1953 30.3906 29.8438 29.6094 28.3281C28.8438 26.8125 28.4609 25.0547 28.4609 23.0547ZM32.4688 23.1719C32.4688 23.7969 32.5234 24.4688 32.6328 25.1875C32.7422 25.9062 32.9062 26.6328 33.125 27.3672C33.3594 28.0859 33.6484 28.7891 33.9922 29.4766C34.3516 30.1484 34.7734 30.75 35.2578 31.2812C35.7422 31.7969 36.3047 32.2109 36.9453 32.5234C37.5859 32.8359 38.2969 32.9922 39.0781 32.9922C39.5781 32.9922 40.0156 32.9453 40.3906 32.8516C40.7656 32.7422 41.1016 32.5938 41.3984 32.4062C41.7109 32.2188 41.9922 32 42.2422 31.75C42.5078 31.4844 42.7656 31.1953 43.0156 30.8828C43.4531 30.3203 43.8281 29.7031 44.1406 29.0312C44.4531 28.3594 44.7109 27.6719 44.9141 26.9688C45.1172 26.2656 45.2578 25.5703 45.3359 24.8828C45.4297 24.1797 45.4766 23.5156 45.4766 22.8906C45.4766 22.2969 45.4141 21.6406 45.2891 20.9219C45.1641 20.1875 44.9609 19.4531 44.6797 18.7188C44.4141 17.9688 44.0703 17.2422 43.6484 16.5391C43.2266 15.8359 42.7188 15.2109 42.125 14.6641C41.6719 14.2266 41.1875 13.9062 40.6719 13.7031C40.1562 13.5 39.7344 13.3984 39.4062 13.3984C38.6719 13.3984 38.0312 13.4766 37.4844 13.6328C36.9375 13.7734 36.4531 13.9922 36.0312 14.2891C35.6094 14.5859 35.2188 14.9609 34.8594 15.4141C34.5156 15.8672 34.1641 16.3984 33.8047 17.0078C33.1953 18.0391 32.8203 19.0625 32.6797 20.0781C32.5391 21.0938 32.4688 22.125 32.4688 23.1719ZM62.0703 33.8359L53.6094 13.6797C53.4844 13.3984 53.3672 13.1875 53.2578 13.0469C53.1641 12.8906 53.0625 12.7812 52.9531 12.7188C52.8438 12.6406 52.7266 12.5938 52.6016 12.5781C52.4766 12.5625 52.3203 12.5547 52.1328 12.5547H51.2891C51.0703 12.5547 50.8828 12.5547 50.7266 12.5547C50.5703 12.5547 50.4609 12.5391 50.3984 12.5078C50.0234 12.4453 49.8359 12.2578 49.8359 11.9453C49.8359 11.8047 49.8984 11.7031 50.0234 11.6406C50.1328 11.5625 50.2734 11.5078 50.4453 11.4766C50.6172 11.4297 50.8047 11.4062 51.0078 11.4062C51.2109 11.3906 51.3984 11.3828 51.5703 11.3828C51.9297 11.3828 52.3594 11.3984 52.8594 11.4297C53.375 11.4453 54.0391 11.4531 54.8516 11.4531C55.1953 11.4531 55.5859 11.4453 56.0234 11.4297C56.4766 11.4141 56.9297 11.4062 57.3828 11.4062C57.8359 11.3906 58.2656 11.375 58.6719 11.3594C59.0781 11.3438 59.4141 11.3359 59.6797 11.3359C59.8828 11.3359 60.0859 11.3672 60.2891 11.4297C60.5078 11.4766 60.6172 11.6328 60.6172 11.8984C60.6172 12.0703 60.5703 12.2031 60.4766 12.2969C60.3984 12.375 60.2891 12.4375 60.1484 12.4844C60.0234 12.5156 59.875 12.5391 59.7031 12.5547C59.5312 12.5547 59.3594 12.5547 59.1875 12.5547C58.8438 12.5547 58.5312 12.5859 58.25 12.6484C57.9688 12.7109 57.8281 12.8828 57.8281 13.1641C57.8281 13.4453 57.8516 13.7109 57.8984 13.9609C57.9609 14.2109 58.0391 14.4609 58.1328 14.7109L64.0625 29.0547C64.1719 29.3203 64.2734 29.5 64.3672 29.5938C64.4609 29.6719 64.5781 29.7109 64.7188 29.7109C64.875 29.7109 65.0234 29.5469 65.1641 29.2188C65.3516 28.7812 65.5781 28.2266 65.8438 27.5547C66.1094 26.8672 66.3828 26.1641 66.6641 25.4453C66.9453 24.7109 67.2109 24.0078 67.4609 23.3359C67.7266 22.6484 67.9453 22.0781 68.1172 21.625C68.1953 21.5312 68.2578 21.375 68.3047 21.1562C68.3672 20.9219 68.3984 20.7188 68.3984 20.5469V20.3828C68.3672 20.2422 68.2891 19.9844 68.1641 19.6094C68.0391 19.2344 67.8828 18.7969 67.6953 18.2969C67.5234 17.7812 67.3281 17.2422 67.1094 16.6797C66.9062 16.1016 66.6953 15.5469 66.4766 15.0156C66.2578 14.4844 66.0391 14.0078 65.8203 13.5859C65.6172 13.1484 65.4375 12.8203 65.2812 12.6016C65.1406 12.4297 65.0312 12.3438 64.9531 12.3438H62.7969C62.625 12.3438 62.5234 12.2812 62.4922 12.1562C62.4609 12.0312 62.4453 11.9297 62.4453 11.8516C62.4453 11.5547 62.5703 11.3672 62.8203 11.2891C63.0703 11.2109 63.3203 11.1719 63.5703 11.1719C63.8203 11.1719 64.125 11.1875 64.4844 11.2188C64.8438 11.25 65.2188 11.2812 65.6094 11.3125C66.0156 11.3438 66.4219 11.375 66.8281 11.4062C67.25 11.4375 67.6406 11.4531 68 11.4531C68.375 11.4531 68.7734 11.4453 69.1953 11.4297C69.6172 11.4141 70.0312 11.4062 70.4375 11.4062C70.8438 11.3906 71.2266 11.375 71.5859 11.3594C71.9453 11.3438 72.25 11.3359 72.5 11.3359C72.5469 11.3359 72.6172 11.3359 72.7109 11.3359C72.8203 11.3359 72.9219 11.3516 73.0156 11.3828C73.1094 11.3984 73.1953 11.4297 73.2734 11.4766C73.3516 11.5078 73.3906 11.5547 73.3906 11.6172C73.3906 11.9453 73.25 12.1484 72.9688 12.2266C72.6875 12.3047 72.3516 12.3438 71.9609 12.3438H70.5547C70.0391 12.3438 69.7812 12.4688 69.7812 12.7188C69.7812 13.1406 69.8516 13.5078 69.9922 13.8203C70.1328 14.1328 70.2891 14.4922 70.4609 14.8984C70.5703 15.2266 70.7344 15.7031 70.9531 16.3281C71.1719 16.9531 71.4141 17.6562 71.6797 18.4375C71.9453 19.2031 72.2266 20.0156 72.5234 20.875C72.8203 21.7188 73.1094 22.5391 73.3906 23.3359C73.6719 24.1172 73.9375 24.8359 74.1875 25.4922C74.4531 26.1328 74.6719 26.6328 74.8438 26.9922C74.9531 27.3047 75.1328 27.4609 75.3828 27.4609C75.4766 27.4609 75.6016 27.3672 75.7578 27.1797C75.9141 26.9766 76.0391 26.7344 76.1328 26.4531C76.4453 25.6562 76.7188 24.9375 76.9531 24.2969C77.2031 23.6562 77.4375 23.0234 77.6562 22.3984C77.875 21.7578 78.0859 21.0938 78.2891 20.4062C78.5078 19.7188 78.75 18.9375 79.0156 18.0625C79.2031 17.4688 79.3984 16.8672 79.6016 16.2578C79.8047 15.6484 79.9062 15.0469 79.9062 14.4531C79.9062 14.1875 79.8359 13.9141 79.6953 13.6328C79.5703 13.3516 79.4141 13.125 79.2266 12.9531C79.0859 12.8438 78.8594 12.7656 78.5469 12.7188C78.25 12.6719 77.9375 12.6172 77.6094 12.5547C77.2969 12.4922 77.0234 12.3984 76.7891 12.2734C76.5547 12.1328 76.4375 11.9141 76.4375 11.6172C76.4375 11.4297 76.5156 11.3203 76.6719 11.2891C76.8281 11.2578 76.9922 11.2422 77.1641 11.2422C77.4297 11.2422 77.75 11.2578 78.125 11.2891C78.5156 11.3047 78.9297 11.3359 79.3672 11.3828C79.8047 11.4141 80.25 11.4453 80.7031 11.4766C81.1562 11.4922 81.5859 11.5 81.9922 11.5C82.5859 11.5 83.1797 11.4844 83.7734 11.4531C84.3672 11.4062 84.9609 11.3672 85.5547 11.3359C85.6797 11.3359 85.8203 11.3438 85.9766 11.3594C86.1328 11.3594 86.2812 11.3828 86.4219 11.4297C86.5625 11.4609 86.6797 11.5234 86.7734 11.6172C86.8828 11.7109 86.9375 11.8359 86.9375 11.9922C86.9375 12.1797 86.8438 12.2812 86.6562 12.2969C86.1562 12.3906 85.7266 12.4844 85.3672 12.5781C85.0234 12.6562 84.7031 12.7656 84.4062 12.9062C84.125 13.0312 83.8438 13.2031 83.5625 13.4219C83.2969 13.625 83 13.8984 82.6719 14.2422C82.1094 14.8359 81.5703 15.7344 81.0547 16.9375C80.5391 18.0781 80.0938 19.1094 79.7188 20.0312C79.3438 20.9531 78.9922 21.8359 78.6641 22.6797C78.3359 23.5234 78 24.3672 77.6562 25.2109C77.3281 26.0391 76.9453 26.9453 76.5078 27.9297C76.2422 28.5234 75.9609 29.125 75.6641 29.7344C75.3828 30.3438 75.1406 30.9531 74.9375 31.5625C74.875 31.7031 74.8047 31.9062 74.7266 32.1719C74.6484 32.4219 74.5625 32.6797 74.4688 32.9453C74.375 33.1953 74.2734 33.4141 74.1641 33.6016C74.0547 33.7891 73.9297 33.8828 73.7891 33.8828C73.5234 33.8828 73.2969 33.7344 73.1094 33.4375C72.9375 33.1406 72.7969 32.8281 72.6875 32.5C72.5938 32.2188 72.4609 31.8438 72.2891 31.375C72.1172 30.9062 71.9219 30.3828 71.7031 29.8047C71.5 29.2266 71.2812 28.6172 71.0469 27.9766C70.8281 27.3359 70.6094 26.7188 70.3906 26.125C70.1719 25.5156 69.9688 24.9531 69.7812 24.4375C69.5938 23.9062 69.4453 23.4688 69.3359 23.125C69.2109 23 69.125 22.9375 69.0781 22.9375C68.9688 22.9375 68.8906 23 68.8438 23.125C68.6094 23.4531 68.4375 23.7969 68.3281 24.1562C67.6094 25.75 66.875 27.2734 66.125 28.7266C65.3906 30.1641 64.6875 31.625 64.0156 33.1094C63.8438 33.4531 63.6797 33.7266 63.5234 33.9297C63.3672 34.1328 63.1562 34.2344 62.8906 34.2344C62.5 34.2344 62.2266 34.1016 62.0703 33.8359ZM107.375 19H91.1562C90.9844 19.0625 90.8828 19.1328 90.8516 19.2109C90.8203 19.2734 90.7891 19.4062 90.7578 19.6094C90.7266 19.75 90.6953 20.0547 90.6641 20.5234C90.6484 20.9922 90.6406 21.5234 90.6406 22.1172C90.6406 22.7109 90.7109 23.2812 90.8516 23.8281C90.9922 24.375 91.1484 24.9141 91.3203 25.4453C91.9766 27.3828 93 28.8594 94.3906 29.875C95.7969 30.8906 97.6406 31.3984 99.9219 31.3984C100.266 31.3984 100.641 31.3359 101.047 31.2109C101.453 31.0859 101.859 30.9297 102.266 30.7422C102.672 30.5391 103.062 30.3047 103.438 30.0391C103.812 29.7734 104.141 29.5 104.422 29.2188C104.625 29.0312 104.789 28.8203 104.914 28.5859C105.055 28.3359 105.227 28.0312 105.43 27.6719C105.492 27.6094 105.578 27.5625 105.688 27.5312C105.797 27.4844 105.891 27.4609 105.969 27.4609C106.25 27.4609 106.438 27.5547 106.531 27.7422C106.641 27.9141 106.695 28.1328 106.695 28.3984C106.695 28.4766 106.664 28.5859 106.602 28.7266C106.555 28.8516 106.492 28.9844 106.414 29.125C106.352 29.2656 106.273 29.4062 106.18 29.5469C106.102 29.6719 106.039 29.7656 105.992 29.8281C105.398 30.7188 104.648 31.5078 103.742 32.1953C102.836 32.8672 101.75 33.4141 100.484 33.8359C100.203 33.9141 99.7188 33.9766 99.0312 34.0234C98.3594 34.0859 97.625 34.1172 96.8281 34.1172C96.125 34.1172 95.3984 34.0234 94.6484 33.8359C93.9141 33.6484 93.1953 33.3828 92.4922 33.0391C91.7891 32.6953 91.1328 32.2969 90.5234 31.8438C89.9297 31.3906 89.4375 30.8906 89.0469 30.3438C88.2031 29.1875 87.5781 28.0156 87.1719 26.8281C86.7812 25.6406 86.5859 24.3125 86.5859 22.8438C86.5859 22.3125 86.6094 21.8125 86.6562 21.3438C86.7188 20.8594 86.8125 20.3906 86.9375 19.9375C87.0781 19.4844 87.25 19.0391 87.4531 18.6016C87.6562 18.1484 87.9062 17.6875 88.2031 17.2188C88.7188 16.3594 89.3047 15.5703 89.9609 14.8516C90.6172 14.1328 91.3438 13.5156 92.1406 13C92.9375 12.4844 93.7969 12.0859 94.7188 11.8047C95.6406 11.5234 96.6328 11.3828 97.6953 11.3828C98.5859 11.3828 99.5078 11.4766 100.461 11.6641C101.43 11.8359 102.359 12.2266 103.25 12.8359C103.531 13.0391 103.922 13.3516 104.422 13.7734C104.922 14.1953 105.414 14.6719 105.898 15.2031C106.383 15.7188 106.805 16.2656 107.164 16.8438C107.523 17.4219 107.703 17.9766 107.703 18.5078C107.703 18.6484 107.672 18.7656 107.609 18.8594C107.562 18.9531 107.484 19 107.375 19ZM91.7656 17.7344H102.195C102.461 17.7344 102.617 17.7031 102.664 17.6406C102.727 17.5625 102.758 17.4844 102.758 17.4062C102.758 17.0469 102.664 16.6719 102.477 16.2812C102.305 15.8906 102.086 15.5234 101.82 15.1797C101.57 14.8203 101.312 14.5 101.047 14.2188C100.781 13.9375 100.555 13.7188 100.367 13.5625C99.8672 13.1406 99.3672 12.8672 98.8672 12.7422C98.3672 12.6172 97.7969 12.5547 97.1562 12.5547C96.8906 12.5547 96.6406 12.5625 96.4062 12.5781C96.1875 12.5781 95.9688 12.5938 95.75 12.625C95.5312 12.6562 95.3125 12.7031 95.0938 12.7656C94.875 12.8281 94.6328 12.9219 94.3672 13.0469C94.0703 13.1875 93.7422 13.4141 93.3828 13.7266C93.0391 14.0234 92.7109 14.375 92.3984 14.7812C92.1016 15.1719 91.8438 15.6016 91.625 16.0703C91.4219 16.5391 91.3203 17 91.3203 17.4531C91.3203 17.6406 91.4688 17.7344 91.7656 17.7344ZM114.008 32.125V19.2812C114.008 18.8125 114 18.3203 113.984 17.8047C113.984 17.2734 113.953 16.7812 113.891 16.3281C113.844 15.875 113.758 15.4922 113.633 15.1797C113.523 14.8516 113.367 14.6406 113.164 14.5469C112.789 14.375 112.328 14.2891 111.781 14.2891C111.422 14.2891 111.086 14.3047 110.773 14.3359C110.477 14.3672 110.203 14.3828 109.953 14.3828C109.875 14.3828 109.805 14.3516 109.742 14.2891C109.68 14.2266 109.648 14.1641 109.648 14.1016C109.648 13.9297 109.703 13.8281 109.812 13.7969C110.297 13.5156 110.789 13.3203 111.289 13.2109C111.789 13.1016 112.305 12.9609 112.836 12.7891C113.305 12.6484 113.781 12.5 114.266 12.3438C114.75 12.1875 115.195 11.9844 115.602 11.7344C115.883 11.5938 116.141 11.4453 116.375 11.2891C116.609 11.1328 116.906 11.0547 117.266 11.0547C117.359 11.0547 117.445 11.1172 117.523 11.2422C117.617 11.3516 117.664 11.4375 117.664 11.5V12.7891C117.664 12.9141 117.664 13.0625 117.664 13.2344C117.68 13.4062 117.688 13.5781 117.688 13.75C117.703 13.9219 117.719 14.0859 117.734 14.2422C117.75 14.3828 117.766 14.4844 117.781 14.5469C117.797 14.6094 117.82 14.6562 117.852 14.6875L117.875 14.7109C117.969 14.7109 118.055 14.6641 118.133 14.5703C118.211 14.4609 118.297 14.3281 118.391 14.1719C118.5 14 118.617 13.8125 118.742 13.6094C118.883 13.4062 119.062 13.2031 119.281 13C119.578 12.7031 119.906 12.4297 120.266 12.1797C120.641 11.9141 121.023 11.6875 121.414 11.5C121.82 11.3125 122.227 11.1641 122.633 11.0547C123.055 10.9453 123.469 10.8906 123.875 10.8906C124.469 10.8906 125.078 10.9453 125.703 11.0547C126.328 11.1484 126.891 11.3281 127.391 11.5938C127.906 11.8438 128.328 12.2031 128.656 12.6719C128.984 13.1406 129.148 13.7344 129.148 14.4531C129.148 14.8438 129.062 15.2031 128.891 15.5312C128.734 15.8594 128.516 16.1406 128.234 16.375C127.969 16.6094 127.656 16.7969 127.297 16.9375C126.953 17.0625 126.594 17.125 126.219 17.125C125.969 17.125 125.703 17.0859 125.422 17.0078C125.141 16.9297 124.961 16.8359 124.883 16.7266C124.398 16.2891 124.062 15.6953 123.875 14.9453C123.797 14.5234 123.742 14.1719 123.711 13.8906C123.695 13.5938 123.633 13.3672 123.523 13.2109C123.43 13.0391 123.266 12.9219 123.031 12.8594C122.797 12.7812 122.43 12.7422 121.93 12.7422C121.523 12.7422 121.102 12.8516 120.664 13.0703C120.242 13.2734 119.844 13.5391 119.469 13.8672C119.109 14.1953 118.797 14.5625 118.531 14.9688C118.266 15.3594 118.109 15.7422 118.062 16.1172C117.984 16.4609 117.938 16.8359 117.922 17.2422C117.922 17.6328 117.922 18.0391 117.922 18.4609V32.5469C118.016 32.75 118.188 32.8828 118.438 32.9453C118.688 32.9922 118.969 33.0156 119.281 33.0156C119.375 33.0156 119.5 33.0156 119.656 33.0156C119.828 33 120 32.9922 120.172 32.9922C120.359 32.9766 120.523 32.9688 120.664 32.9688C120.805 32.9531 120.898 32.9453 120.945 32.9453C121.305 32.9453 121.594 32.9922 121.812 33.0859C122.047 33.1641 122.164 33.3438 122.164 33.625C122.164 33.8125 122.07 33.9844 121.883 34.1406C121.711 34.2969 121.539 34.3828 121.367 34.3984C120.508 34.2578 119.625 34.1562 118.719 34.0938C117.828 34.0312 116.938 34 116.047 34C115.109 34 114.234 34.0391 113.422 34.1172C112.609 34.1953 111.766 34.2344 110.891 34.2344C110.719 34.2344 110.516 34.1719 110.281 34.0469C110.062 33.9219 109.953 33.7578 109.953 33.5547C109.953 33.4297 109.992 33.3203 110.07 33.2266C110.148 33.1328 110.242 33.0625 110.352 33.0156C110.477 32.9531 110.594 32.9062 110.703 32.875C110.828 32.8438 110.93 32.8281 111.008 32.8281C111.18 32.8281 111.344 32.8359 111.5 32.8516C111.672 32.8672 111.852 32.8828 112.039 32.8984C112.18 32.9297 112.328 32.9531 112.484 32.9688C112.641 32.9844 112.789 32.9922 112.93 32.9922C113.023 32.9922 113.125 32.9688 113.234 32.9219C113.359 32.875 113.477 32.8125 113.586 32.7344C113.711 32.6406 113.812 32.5469 113.891 32.4531C113.969 32.3438 114.008 32.2344 114.008 32.125ZM143.188 32.8281C143.188 32.5469 143.227 32.2031 143.305 31.7969C143.398 31.375 143.539 30.9453 143.727 30.5078C144.055 29.6484 144.453 28.6328 144.922 27.4609C145.391 26.2734 145.891 25.0391 146.422 23.7578C146.953 22.4609 147.492 21.1719 148.039 19.8906C148.586 18.5938 149.094 17.4062 149.562 16.3281C149.703 16.0156 149.797 15.7422 149.844 15.5078C149.891 15.2578 149.914 15.0703 149.914 14.9453C149.914 14.8672 149.844 14.7578 149.703 14.6172C149.578 14.4609 149.477 14.3828 149.398 14.3828C149.18 14.3828 148.961 14.4141 148.742 14.4766C148.539 14.5391 148.352 14.6562 148.18 14.8281C147.102 15.6719 146 16.5703 144.875 17.5234C143.766 18.4609 142.648 19.5234 141.523 20.7109C141.07 21.1641 140.625 21.6797 140.188 22.2578C139.75 22.8203 139.328 23.4141 138.922 24.0391C138.516 24.6641 138.133 25.2969 137.773 25.9375C137.414 26.5781 137.094 27.1875 136.812 27.7656C136.656 28.0625 136.438 28.5078 136.156 29.1016C135.891 29.6953 135.57 30.2969 135.195 30.9062C134.836 31.5156 134.438 32.0547 134 32.5234C133.562 32.9766 133.109 33.2109 132.641 33.2266C132.438 33.2266 132.234 33.1875 132.031 33.1094C131.844 33.0156 131.664 32.8984 131.492 32.7578C131.336 32.6016 131.203 32.4297 131.094 32.2422C131 32.0547 130.953 31.8594 130.953 31.6562C130.953 31.2656 131 30.875 131.094 30.4844C131.203 30.0938 131.328 29.7109 131.469 29.3359C131.625 28.9609 131.789 28.5938 131.961 28.2344C132.133 27.875 132.297 27.5234 132.453 27.1797C132.828 26.3672 133.172 25.5938 133.484 24.8594C133.812 24.125 134.125 23.4062 134.422 22.7031C134.719 22 135.008 21.3047 135.289 20.6172C135.586 19.9297 135.891 19.2109 136.203 18.4609C136.344 18.1641 136.516 17.8281 136.719 17.4531C136.938 17.0781 137.141 16.6953 137.328 16.3047C137.531 15.8984 137.703 15.5 137.844 15.1094C138 14.7031 138.078 14.3203 138.078 13.9609C137.625 13.9609 137.188 14.0703 136.766 14.2891C136.359 14.4922 135.961 14.7578 135.57 15.0859C135.195 15.3984 134.836 15.7422 134.492 16.1172C134.164 16.4922 133.859 16.8438 133.578 17.1719C133.453 17.3125 133.32 17.4766 133.18 17.6641C133.039 17.8516 132.898 18.0312 132.758 18.2031C132.617 18.3594 132.477 18.5 132.336 18.625C132.195 18.7344 132.055 18.7891 131.914 18.7891C131.789 18.7891 131.695 18.7578 131.633 18.6953C131.586 18.6172 131.562 18.5391 131.562 18.4609C131.562 18.2734 131.617 18.0156 131.727 17.6875C131.852 17.3438 132.008 16.9844 132.195 16.6094C132.383 16.2344 132.586 15.8672 132.805 15.5078C133.023 15.1484 133.242 14.8516 133.461 14.6172C133.883 14.1172 134.336 13.6562 134.82 13.2344C135.305 12.7969 135.805 12.4219 136.32 12.1094C136.836 11.7812 137.352 11.5234 137.867 11.3359C138.398 11.1484 138.914 11.0547 139.414 11.0547C140.023 11.0547 140.43 11.1875 140.633 11.4531C140.852 11.7188 140.961 12.0547 140.961 12.4609C140.961 12.7266 140.914 13 140.82 13.2812C140.742 13.5625 140.656 13.8438 140.562 14.125C140.203 15.0156 139.797 15.9844 139.344 17.0312C138.891 18.0625 138.484 19.0547 138.125 20.0078C137.953 20.4766 137.781 20.9297 137.609 21.3672C137.438 21.8047 137.352 22.2188 137.352 22.6094C137.695 22.3594 138.016 22.0703 138.312 21.7422C138.625 21.3984 138.914 21.0938 139.18 20.8281C139.789 20.1875 140.398 19.5703 141.008 18.9766C141.617 18.3828 142.242 17.7969 142.883 17.2188C143.539 16.6406 144.219 16.0781 144.922 15.5312C145.625 14.9688 146.383 14.4062 147.195 13.8438C148.023 13.2969 148.867 12.8594 149.727 12.5312C150.586 12.1875 151.438 12.0156 152.281 12.0156C152.875 12.0156 153.359 12.1719 153.734 12.4844C154.109 12.7969 154.297 13.2266 154.297 13.7734C154.297 14.1172 154.219 14.5469 154.062 15.0625C153.906 15.5625 153.742 16.0391 153.57 16.4922C152.633 18.8672 151.68 21.2266 150.711 23.5703C149.758 25.8984 148.75 28.2266 147.688 30.5547C147.688 30.8203 147.82 30.9531 148.086 30.9531C148.242 30.9531 148.5 30.8359 148.859 30.6016C149.234 30.3516 149.633 30.0703 150.055 29.7578C150.477 29.4453 150.883 29.1328 151.273 28.8203C151.664 28.5078 151.945 28.2891 152.117 28.1641C152.133 28.1484 152.188 28.1016 152.281 28.0234C152.391 27.9453 152.508 27.8594 152.633 27.7656C152.758 27.6562 152.883 27.5469 153.008 27.4375C153.133 27.3281 153.227 27.2422 153.289 27.1797C153.508 26.9141 153.711 26.7812 153.898 26.7812C154.023 26.7812 154.148 26.8281 154.273 26.9219C154.398 27.0156 154.461 27.1484 154.461 27.3203C154.461 27.3984 154.406 27.5234 154.297 27.6953C154.203 27.8516 154.055 28.0234 153.852 28.2109C153.242 28.8984 152.531 29.6328 151.719 30.4141C150.922 31.1797 150.078 31.8984 149.188 32.5703C148.484 33.1016 147.781 33.5391 147.078 33.8828C146.391 34.2266 145.594 34.3984 144.688 34.3984C144.141 34.3984 143.75 34.2734 143.516 34.0234C143.297 33.7891 143.188 33.3906 143.188 32.8281ZM160.227 30.0156C160.227 30.3281 160.273 30.6641 160.367 31.0234C160.461 31.3672 160.602 31.6875 160.789 31.9844C160.977 32.2812 161.203 32.5312 161.469 32.7344C161.734 32.9219 162.047 33.0156 162.406 33.0156C162.781 33.0156 163.117 32.9766 163.414 32.8984C163.727 32.8047 164.016 32.6719 164.281 32.5C164.562 32.3125 164.836 32.0938 165.102 31.8438C165.383 31.5781 165.68 31.2734 165.992 30.9297C166.805 30.0234 167.586 28.9844 168.336 27.8125C169.086 26.625 169.75 25.3984 170.328 24.1328C170.922 22.8672 171.391 21.6094 171.734 20.3594C172.094 19.1094 172.273 17.9531 172.273 16.8906C172.273 16.5 172.227 16.0859 172.133 15.6484C172.039 15.2109 171.898 14.8125 171.711 14.4531C171.523 14.0781 171.289 13.7734 171.008 13.5391C170.727 13.2891 170.391 13.1641 170 13.1641C169.141 13.1641 168.312 13.5391 167.516 14.2891C166.406 15.3047 165.406 16.4219 164.516 17.6406C163.625 18.8438 162.859 20.1172 162.219 21.4609C161.578 22.8047 161.086 24.2031 160.742 25.6562C160.398 27.0938 160.227 28.5469 160.227 30.0156ZM168.945 11.7109C170.086 11.7109 171.031 11.9766 171.781 12.5078C172.531 13.0391 173.125 13.7188 173.562 14.5469C174.016 15.375 174.328 16.2891 174.5 17.2891C174.688 18.2734 174.781 19.2344 174.781 20.1719C174.781 21.2344 174.656 22.3281 174.406 23.4531C174.156 24.5625 173.797 25.6484 173.328 26.7109C172.875 27.7578 172.312 28.75 171.641 29.6875C170.969 30.6094 170.211 31.4219 169.367 32.125C168.539 32.8281 167.625 33.3828 166.625 33.7891C165.625 34.1953 164.57 34.3984 163.461 34.3984C162.617 34.3984 161.891 34.25 161.281 33.9531C160.672 33.6406 160.141 33.2266 159.688 32.7109C159.25 32.1953 158.875 31.5938 158.562 30.9062C158.266 30.2188 158 29.4922 157.766 28.7266C157.734 28.6016 157.695 28.3984 157.648 28.1172C157.617 27.8359 157.586 27.5391 157.555 27.2266C157.523 26.9141 157.492 26.625 157.461 26.3594C157.445 26.0781 157.438 25.8828 157.438 25.7734C157.438 24.7578 157.562 23.7031 157.812 22.6094C158.078 21.5156 158.445 20.4531 158.914 19.4219C159.398 18.375 159.984 17.3828 160.672 16.4453C161.359 15.5078 162.125 14.6953 162.969 14.0078C163.828 13.3047 164.758 12.75 165.758 12.3438C166.758 11.9219 167.82 11.7109 168.945 11.7109ZM176.867 32.5C176.867 31.7812 177.086 30.9141 177.523 29.8984C178.086 28.5703 178.625 27.2891 179.141 26.0547C179.672 24.8047 180.188 23.5781 180.688 22.375C181.203 21.1719 181.695 19.9844 182.164 18.8125C182.648 17.6406 183.117 16.4688 183.57 15.2969C183.602 15.2188 183.648 15.125 183.711 15.0156C183.773 14.8906 183.836 14.7656 183.898 14.6406C183.961 14.5156 184.016 14.3906 184.062 14.2656C184.109 14.1406 184.133 14.0312 184.133 13.9375C184.133 13.8125 184.094 13.7109 184.016 13.6328C183.953 13.5547 183.82 13.5156 183.617 13.5156H179.961C179.758 13.5156 179.633 13.4609 179.586 13.3516C179.539 13.2422 179.516 13.1484 179.516 13.0703C179.516 12.7891 179.602 12.5 179.773 12.2031C179.945 11.8906 180.211 11.7344 180.57 11.7344H185.117C185.148 11.7344 185.188 11.6953 185.234 11.6172C185.297 11.5234 185.359 11.4141 185.422 11.2891C185.5 11.1172 185.57 10.9141 185.633 10.6797C185.711 10.4297 185.781 10.1875 185.844 9.95312C185.906 9.71875 185.961 9.51562 186.008 9.34375C186.055 9.15625 186.094 9.03906 186.125 8.99219C186.297 8.58594 186.492 8.20312 186.711 7.84375C186.945 7.46875 187.211 7.14844 187.508 6.88281C187.805 6.60156 188.141 6.38281 188.516 6.22656C188.906 6.07031 189.336 5.99219 189.805 5.99219C190.133 5.99219 190.359 6.08594 190.484 6.27344C190.625 6.44531 190.695 6.71094 190.695 7.07031C190.695 7.47656 190.602 7.85156 190.414 8.19531C190.227 8.53906 190.023 8.88281 189.805 9.22656C189.586 9.55469 189.383 9.89062 189.195 10.2344C189.008 10.5781 188.914 10.9453 188.914 11.3359C188.914 11.4453 188.938 11.5391 188.984 11.6172C189.031 11.6953 189.141 11.7344 189.312 11.7344H192.734C192.859 11.7344 192.992 11.8125 193.133 11.9688C193.273 12.125 193.344 12.2891 193.344 12.4609C193.344 12.6797 193.266 12.8516 193.109 12.9766C192.969 13.1016 192.789 13.2031 192.57 13.2812C192.367 13.3438 192.148 13.3906 191.914 13.4219C191.68 13.4375 191.477 13.4453 191.305 13.4453C191.102 13.4453 190.828 13.4297 190.484 13.3984C190.156 13.3672 189.852 13.3516 189.57 13.3516C189.242 13.3516 188.93 13.375 188.633 13.4219C188.352 13.4688 188.109 13.6484 187.906 13.9609C187.875 13.9609 187.844 14.0156 187.812 14.125C187.797 14.2344 187.773 14.3281 187.742 14.4062C187.227 15.6875 186.719 16.9453 186.219 18.1797C185.734 19.3984 185.242 20.6172 184.742 21.8359C184.258 23.0391 183.766 24.25 183.266 25.4688C182.781 26.6719 182.289 27.8906 181.789 29.125C181.617 29.5312 181.477 29.9375 181.367 30.3438C181.258 30.75 181.203 31.0234 181.203 31.1641C181.203 31.3828 181.289 31.4922 181.461 31.4922C181.633 31.4922 181.844 31.4219 182.094 31.2812C182.359 31.1406 182.578 31.0078 182.75 30.8828C183.328 30.3828 183.961 29.8125 184.648 29.1719C185.336 28.5312 186.18 27.75 187.18 26.8281C187.258 26.75 187.336 26.6719 187.414 26.5938C187.508 26.5 187.617 26.4531 187.742 26.4531C187.852 26.4531 187.906 26.5469 187.906 26.7344C187.906 26.8438 187.867 27 187.789 27.2031C187.727 27.3906 187.641 27.5938 187.531 27.8125C187.422 28.0312 187.297 28.25 187.156 28.4688C187.016 28.6875 186.875 28.8828 186.734 29.0547C186.297 29.6016 185.773 30.1875 185.164 30.8125C184.555 31.4375 183.898 32.0156 183.195 32.5469C182.492 33.0625 181.766 33.5 181.016 33.8594C180.281 34.2031 179.562 34.375 178.859 34.375C178.25 34.375 177.766 34.2188 177.406 33.9062C177.047 33.5781 176.867 33.1094 176.867 32.5ZM197.516 19.3984C197.516 19.8047 197.711 20.0078 198.102 20.0078C198.648 20.0078 199.242 19.9297 199.883 19.7734C200.539 19.6172 201.117 19.4531 201.617 19.2812C202.289 19.0938 203.031 18.7969 203.844 18.3906C204.656 17.9688 205.406 17.4688 206.094 16.8906C206.797 16.2969 207.383 15.6406 207.852 14.9219C208.32 14.2031 208.555 13.4297 208.555 12.6016C208.555 12.1016 208.344 11.7422 207.922 11.5234C207.516 11.2891 207.047 11.1719 206.516 11.1719C206.031 11.1719 205.539 11.2656 205.039 11.4531C204.539 11.6406 204.055 11.875 203.586 12.1562C203.117 12.4375 202.672 12.7422 202.25 13.0703C201.844 13.3984 201.484 13.6953 201.172 13.9609C200.891 14.2109 200.539 14.5703 200.117 15.0391C199.711 15.4922 199.312 15.9844 198.922 16.5156C198.547 17.0312 198.219 17.5547 197.938 18.0859C197.656 18.6016 197.516 19.0391 197.516 19.3984ZM197.281 21.0156C196.953 21.1719 196.672 21.4375 196.438 21.8125C196.203 22.1719 196.008 22.5781 195.852 23.0312C195.711 23.4688 195.609 23.9219 195.547 24.3906C195.484 24.8438 195.453 25.2344 195.453 25.5625C195.453 26.2812 195.531 27.0234 195.688 27.7891C195.844 28.5547 196.094 29.2578 196.438 29.8984C196.797 30.5234 197.266 31.0391 197.844 31.4453C198.422 31.8516 199.125 32.0547 199.953 32.0547C200.594 32.0547 201.156 31.9375 201.641 31.7031C202.125 31.4531 202.547 31.1562 202.906 30.8125C203.281 30.4531 203.594 30.0625 203.844 29.6406C204.109 29.2188 204.336 28.8359 204.523 28.4922C204.711 28.1328 204.867 27.8359 204.992 27.6016C205.133 27.3516 205.266 27.2266 205.391 27.2266C205.531 27.2266 205.625 27.3125 205.672 27.4844C205.734 27.6406 205.766 27.8125 205.766 28C205.75 28.5938 205.586 29.1953 205.273 29.8047C204.961 30.3984 204.57 30.9688 204.102 31.5156C203.633 32.0625 203.117 32.5625 202.555 33.0156C202.008 33.4531 201.492 33.8047 201.008 34.0703C200.82 34.1797 200.594 34.2734 200.328 34.3516C200.062 34.4297 199.781 34.4922 199.484 34.5391C199.188 34.5859 198.891 34.6172 198.594 34.6328C198.312 34.6641 198.062 34.6797 197.844 34.6797C197.359 34.6797 196.852 34.5938 196.32 34.4219C195.805 34.25 195.305 34.0078 194.82 33.6953C194.336 33.3672 193.891 32.9844 193.484 32.5469C193.094 32.1094 192.781 31.6172 192.547 31.0703C192.438 30.8672 192.328 30.6172 192.219 30.3203C192.125 30.0078 192.031 29.6875 191.938 29.3594C191.859 29.0312 191.797 28.7031 191.75 28.375C191.703 28.0312 191.68 27.7188 191.68 27.4375C191.68 26.4062 191.789 25.3203 192.008 24.1797C192.227 23.0234 192.539 21.9297 192.945 20.8984C193.07 20.6016 193.234 20.2656 193.438 19.8906C193.641 19.5 193.867 19.1016 194.117 18.6953C194.383 18.2734 194.656 17.8594 194.938 17.4531C195.219 17.0312 195.5 16.6562 195.781 16.3281C196.375 15.5781 197.047 14.8594 197.797 14.1719C198.562 13.4844 199.383 12.875 200.258 12.3438C201.133 11.8125 202.055 11.3906 203.023 11.0781C204.008 10.7656 205.023 10.6094 206.07 10.6094C206.57 10.6094 207.133 10.6875 207.758 10.8438C208.383 10.9844 208.969 11.2031 209.516 11.5C210.078 11.7969 210.547 12.1719 210.922 12.625C211.297 13.0781 211.484 13.6094 211.484 14.2188C211.484 15.3594 211.25 16.3203 210.781 17.1016C210.328 17.8672 209.711 18.5 208.93 19C208.164 19.5 207.281 19.8906 206.281 20.1719C205.297 20.4375 204.281 20.6328 203.234 20.7578C202.188 20.8828 201.141 20.9609 200.094 20.9922C199.062 21.0078 198.125 21.0156 197.281 21.0156ZM209.141 29.6172C209.141 29.0859 209.156 28.6484 209.188 28.3047C209.219 27.9453 209.297 27.5859 209.422 27.2266C210.125 27.2266 210.672 27.2656 211.062 27.3438C211.453 27.4219 211.781 27.6406 212.047 28C212.094 28.4844 212.117 29.0156 212.117 29.5938C212.133 30.1719 212.211 30.7188 212.352 31.2344C212.492 31.7344 212.727 32.1562 213.055 32.5C213.383 32.8281 213.891 32.9922 214.578 32.9922C214.891 32.9922 215.266 32.9531 215.703 32.875C216.156 32.7812 216.547 32.5781 216.875 32.2656C217.141 32 217.32 31.6875 217.414 31.3281C217.523 30.9531 217.578 30.5859 217.578 30.2266C217.578 29.3047 217.469 28.3984 217.25 27.5078C217.047 26.6016 216.82 25.6953 216.57 24.7891C216.336 23.8672 216.109 22.9453 215.891 22.0234C215.688 21.0859 215.586 20.1328 215.586 19.1641C215.586 18.1172 215.734 17.1562 216.031 16.2812C216.328 15.3906 216.758 14.6328 217.32 14.0078C217.883 13.3672 218.562 12.875 219.359 12.5312C220.156 12.1719 221.062 11.9922 222.078 11.9922C222.5 11.9922 222.93 12.0391 223.367 12.1328C223.82 12.2266 224.227 12.3828 224.586 12.6016C224.945 12.8047 225.242 13.0781 225.477 13.4219C225.711 13.75 225.828 14.1641 225.828 14.6641C225.828 15.1484 225.688 15.5859 225.406 15.9766C225.141 16.3672 224.742 16.5625 224.211 16.5625C223.836 16.5625 223.547 16.4766 223.344 16.3047C223.156 16.1328 223 15.9219 222.875 15.6719C222.75 15.4219 222.641 15.1484 222.547 14.8516C222.453 14.5391 222.312 14.2578 222.125 14.0078C221.953 13.7578 221.703 13.5469 221.375 13.375C221.062 13.2031 220.633 13.1172 220.086 13.1172C219.727 13.1172 219.422 13.2031 219.172 13.375C218.922 13.5312 218.719 13.7422 218.562 14.0078C218.422 14.2578 218.32 14.5469 218.258 14.875C218.195 15.1875 218.164 15.5078 218.164 15.8359C218.164 16.4297 218.25 17.0312 218.422 17.6406C218.609 18.2344 218.828 18.8906 219.078 19.6094C219.297 20.2656 219.516 20.9219 219.734 21.5781C219.969 22.2188 220.172 22.8672 220.344 23.5234C220.531 24.1641 220.68 24.8203 220.789 25.4922C220.914 26.1484 220.977 26.8203 220.977 27.5078C220.977 28.2734 220.898 28.9453 220.742 29.5234C220.602 30.1016 220.398 30.6172 220.133 31.0703C219.867 31.5078 219.547 31.8984 219.172 32.2422C218.812 32.5703 218.414 32.875 217.977 33.1562C217.805 33.25 217.562 33.3438 217.25 33.4375C216.938 33.5312 216.602 33.6172 216.242 33.6953C215.898 33.7578 215.555 33.8125 215.211 33.8594C214.867 33.9062 214.57 33.9297 214.32 33.9297C214.18 33.9297 214 33.9141 213.781 33.8828C213.562 33.8516 213.328 33.8047 213.078 33.7422C212.828 33.6797 212.57 33.6016 212.305 33.5078C212.055 33.3984 211.82 33.2812 211.602 33.1562C211.367 33 211.102 32.8047 210.805 32.5703C210.523 32.3203 210.258 32.0469 210.008 31.75C209.758 31.4375 209.555 31.1016 209.398 30.7422C209.227 30.3828 209.141 30.0078 209.141 29.6172Z" fill="#4AF03B"/>
</svg>
