<svg width="57" height="10" viewBox="0 0 57 10" fill="none" xmlns="http://www.w3.org/2000/svg">
<path d="M0.416016 8.91797C0.416016 8.79688 0.501953 8.73633 0.673828 8.73633C0.794922 8.73633 0.919922 8.72656 1.04883 8.70703C1.17773 8.68359 1.29883 8.65625 1.41211 8.625C1.47461 8.60938 1.5293 8.58594 1.57617 8.55469C1.62305 8.51953 1.64648 8.45898 1.64648 8.37305V1.17188C1.62305 1.11719 1.57812 1.07031 1.51172 1.03125C1.44922 0.992187 1.375 0.960938 1.28906 0.9375C1.20312 0.914062 1.11133 0.894531 1.01367 0.878906C0.919922 0.863281 0.828125 0.849609 0.738281 0.837891C0.652344 0.826172 0.572266 0.814453 0.498047 0.802734C0.427734 0.787109 0.375 0.769531 0.339844 0.75C0.3125 0.742188 0.298828 0.714844 0.298828 0.667969C0.298828 0.632812 0.3125 0.613281 0.339844 0.609375C0.355469 0.601563 0.378906 0.59375 0.410156 0.585938C0.441406 0.578125 0.501953 0.574219 0.591797 0.574219C0.623047 0.574219 0.695312 0.578125 0.808594 0.585938C0.925781 0.589844 1.05273 0.597656 1.18945 0.609375C1.32617 0.617187 1.45508 0.625 1.57617 0.632812C1.70117 0.636719 1.78516 0.638672 1.82812 0.638672H2.61914C2.63477 0.638672 2.67188 0.636719 2.73047 0.632812C2.79297 0.628906 2.85938 0.626953 2.92969 0.626953C3 0.623047 3.0625 0.619141 3.11719 0.615234C3.17578 0.611328 3.20898 0.609375 3.2168 0.609375C3.34961 0.589844 3.48242 0.578125 3.61523 0.574219C3.74805 0.570312 3.88281 0.568359 4.01953 0.568359C4.25781 0.568359 4.50195 0.578125 4.75195 0.597656C5.00586 0.613281 5.24414 0.664062 5.4668 0.75C5.69336 0.835938 5.89844 0.951172 6.08203 1.0957C6.26562 1.23633 6.42188 1.39844 6.55078 1.58203C6.68359 1.76172 6.78516 1.95898 6.85547 2.17383C6.92969 2.38867 6.9668 2.60938 6.9668 2.83594C6.9668 3.23438 6.89453 3.58008 6.75 3.87305C6.60938 4.16211 6.38086 4.42188 6.06445 4.65234C5.86914 4.79297 5.63086 4.91211 5.34961 5.00977C5.07227 5.10352 4.75586 5.15039 4.40039 5.15039C4.24805 5.15039 4.09766 5.14844 3.94922 5.14453C3.80078 5.13672 3.64844 5.125 3.49219 5.10938C3.47266 5.10938 3.44922 5.10547 3.42188 5.09766C3.39453 5.08984 3.35938 5.08594 3.31641 5.08594H3.20508C3.16992 5.08594 3.15039 5.09375 3.14648 5.10938C3.08398 5.12891 3.03125 5.16406 2.98828 5.21484C2.94531 5.26172 2.92383 5.34375 2.92383 5.46094V6.58594C2.92383 6.85156 2.91211 7.14062 2.88867 7.45312C2.86914 7.76562 2.85938 8.06445 2.85938 8.34961C2.85938 8.43164 2.87695 8.49023 2.91211 8.52539C2.94727 8.55664 2.99805 8.58008 3.06445 8.5957C3.24023 8.63867 3.40625 8.66992 3.5625 8.68945C3.71875 8.70508 3.88086 8.73047 4.04883 8.76562C4.10742 8.78516 4.14258 8.80664 4.1543 8.83008C4.16992 8.84961 4.17773 8.87305 4.17773 8.90039C4.17773 8.92383 4.16602 8.94336 4.14258 8.95898C4.12305 8.9707 4.09766 8.98242 4.06641 8.99414C4.03906 9.00195 4.00977 9.00781 3.97852 9.01172C3.95117 9.01562 3.92773 9.01758 3.9082 9.01758C3.86133 9.01758 3.80273 9.01562 3.73242 9.01172C3.66602 9.01172 3.59766 9.00977 3.52734 9.00586C3.46094 9.00586 3.39648 9.00391 3.33398 9C3.27539 9 3.22852 9 3.19336 9H1.42383C1.27539 9 1.13281 9.00195 0.996094 9.00586C0.863281 9.01367 0.765625 9.01758 0.703125 9.01758H0.486328C0.439453 9.01367 0.416016 8.98047 0.416016 8.91797ZM3.03516 4.88672C3.10547 4.90625 3.17383 4.92383 3.24023 4.93945C3.31055 4.95117 3.39648 4.95703 3.49805 4.95703C3.67383 4.95703 3.85156 4.9375 4.03125 4.89844C4.21094 4.85547 4.375 4.79297 4.52344 4.71094C4.66406 4.63672 4.80078 4.53906 4.93359 4.41797C5.07031 4.29688 5.19141 4.15625 5.29688 3.99609C5.40234 3.83203 5.48633 3.65039 5.54883 3.45117C5.61523 3.24805 5.64844 3.02734 5.64844 2.78906C5.64844 2.53906 5.62109 2.31836 5.56641 2.12695C5.51172 1.93164 5.42969 1.75977 5.32031 1.61133C5.21484 1.46289 5.08008 1.33398 4.91602 1.22461C4.75586 1.11133 4.56836 1.00977 4.35352 0.919922C4.23633 0.869141 4.11328 0.833984 3.98438 0.814453C3.85938 0.791016 3.72852 0.779297 3.5918 0.779297C3.4668 0.779297 3.35156 0.785156 3.24609 0.796875C3.14453 0.804687 3.03711 0.830078 2.92383 0.873047V4.59961C2.92383 4.66211 2.92773 4.7207 2.93555 4.77539C2.94727 4.83008 2.98047 4.86719 3.03516 4.88672ZM7.36523 6.26367C7.36523 5.84961 7.43359 5.47852 7.57031 5.15039C7.71094 4.81836 7.9043 4.53711 8.15039 4.30664C8.39648 4.07617 8.68945 3.89844 9.0293 3.77344C9.36914 3.64844 9.74219 3.58594 10.1484 3.58594C10.2383 3.58594 10.332 3.5957 10.4297 3.61523C10.5273 3.63477 10.625 3.66211 10.7227 3.69727C10.8242 3.72852 10.9219 3.76562 11.0156 3.80859C11.1133 3.85156 11.2031 3.89648 11.2852 3.94336C11.75 4.20117 12.0957 4.53516 12.3223 4.94531C12.5527 5.35547 12.668 5.82422 12.668 6.35156C12.668 6.70703 12.6055 7.04883 12.4805 7.37695C12.3594 7.70117 12.1738 7.99609 11.9238 8.26172C11.6738 8.51953 11.3887 8.70703 11.0684 8.82422C10.748 8.94141 10.4121 9 10.0605 9C9.80273 9 9.54883 8.97656 9.29883 8.92969C9.05273 8.88281 8.80664 8.77148 8.56055 8.5957C8.15039 8.29883 7.84766 7.96094 7.65234 7.58203C7.46094 7.20312 7.36523 6.76367 7.36523 6.26367ZM8.36719 6.29297C8.36719 6.44922 8.38086 6.61719 8.4082 6.79688C8.43555 6.97656 8.47656 7.1582 8.53125 7.3418C8.58984 7.52148 8.66211 7.69727 8.74805 7.86914C8.83789 8.03711 8.94336 8.1875 9.06445 8.32031C9.18555 8.44922 9.32617 8.55273 9.48633 8.63086C9.64648 8.70898 9.82422 8.74805 10.0195 8.74805C10.1445 8.74805 10.2539 8.73633 10.3477 8.71289C10.4414 8.68555 10.5254 8.64844 10.5996 8.60156C10.6777 8.55469 10.748 8.5 10.8105 8.4375C10.877 8.37109 10.9414 8.29883 11.0039 8.2207C11.1133 8.08008 11.207 7.92578 11.2852 7.75781C11.3633 7.58984 11.4277 7.41797 11.4785 7.24219C11.5293 7.06641 11.5645 6.89258 11.584 6.7207C11.6074 6.54492 11.6191 6.37891 11.6191 6.22266C11.6191 6.07422 11.6035 5.91016 11.5723 5.73047C11.541 5.54688 11.4902 5.36328 11.4199 5.17969C11.3535 4.99219 11.2676 4.81055 11.1621 4.63477C11.0566 4.45898 10.9297 4.30273 10.7812 4.16602C10.668 4.05664 10.5469 3.97656 10.418 3.92578C10.2891 3.875 10.1836 3.84961 10.1016 3.84961C9.91797 3.84961 9.75781 3.86914 9.62109 3.9082C9.48438 3.94336 9.36328 3.99805 9.25781 4.07227C9.15234 4.14648 9.05469 4.24023 8.96484 4.35352C8.87891 4.4668 8.79102 4.59961 8.70117 4.75195C8.54883 5.00977 8.45508 5.26562 8.41992 5.51953C8.38477 5.77344 8.36719 6.03125 8.36719 6.29297ZM15.7676 8.95898L13.6523 3.91992C13.6211 3.84961 13.5918 3.79688 13.5645 3.76172C13.541 3.72266 13.5156 3.69531 13.4883 3.67969C13.4609 3.66016 13.4316 3.64844 13.4004 3.64453C13.3691 3.64062 13.3301 3.63867 13.2832 3.63867H13.0723C13.0176 3.63867 12.9707 3.63867 12.9316 3.63867C12.8926 3.63867 12.8652 3.63477 12.8496 3.62695C12.7559 3.61133 12.709 3.56445 12.709 3.48633C12.709 3.45117 12.7246 3.42578 12.7559 3.41016C12.7832 3.39062 12.8184 3.37695 12.8613 3.36914C12.9043 3.35742 12.9512 3.35156 13.002 3.35156C13.0527 3.34766 13.0996 3.3457 13.1426 3.3457C13.2324 3.3457 13.3398 3.34961 13.4648 3.35742C13.5938 3.36133 13.7598 3.36328 13.9629 3.36328C14.0488 3.36328 14.1465 3.36133 14.2559 3.35742C14.3691 3.35352 14.4824 3.35156 14.5957 3.35156C14.709 3.34766 14.8164 3.34375 14.918 3.33984C15.0195 3.33594 15.1035 3.33398 15.1699 3.33398C15.2207 3.33398 15.2715 3.3418 15.3223 3.35742C15.377 3.36914 15.4043 3.4082 15.4043 3.47461C15.4043 3.51758 15.3926 3.55078 15.3691 3.57422C15.3496 3.59375 15.3223 3.60938 15.2871 3.62109C15.2559 3.62891 15.2188 3.63477 15.1758 3.63867C15.1328 3.63867 15.0898 3.63867 15.0469 3.63867C14.9609 3.63867 14.8828 3.64648 14.8125 3.66211C14.7422 3.67773 14.707 3.7207 14.707 3.79102C14.707 3.86133 14.7129 3.92773 14.7246 3.99023C14.7402 4.05273 14.7598 4.11523 14.7832 4.17773L16.2656 7.76367C16.293 7.83008 16.3184 7.875 16.3418 7.89844C16.3652 7.91797 16.3945 7.92773 16.4297 7.92773C16.4688 7.92773 16.5059 7.88672 16.541 7.80469C16.5879 7.69531 16.6445 7.55664 16.7109 7.38867C16.7773 7.2168 16.8457 7.04102 16.916 6.86133C16.9863 6.67773 17.0527 6.50195 17.1152 6.33398C17.1816 6.16211 17.2363 6.01953 17.2793 5.90625C17.2988 5.88281 17.3145 5.84375 17.3262 5.78906C17.3418 5.73047 17.3496 5.67969 17.3496 5.63672V5.5957C17.3418 5.56055 17.3223 5.49609 17.291 5.40234C17.2598 5.30859 17.2207 5.19922 17.1738 5.07422C17.1309 4.94531 17.082 4.81055 17.0273 4.66992C16.9766 4.52539 16.9238 4.38672 16.8691 4.25391C16.8145 4.12109 16.7598 4.00195 16.7051 3.89648C16.6543 3.78711 16.6094 3.70508 16.5703 3.65039C16.5352 3.60742 16.5078 3.58594 16.4883 3.58594H15.9492C15.9062 3.58594 15.8809 3.57031 15.873 3.53906C15.8652 3.50781 15.8613 3.48242 15.8613 3.46289C15.8613 3.38867 15.8926 3.3418 15.9551 3.32227C16.0176 3.30273 16.0801 3.29297 16.1426 3.29297C16.2051 3.29297 16.2812 3.29688 16.3711 3.30469C16.4609 3.3125 16.5547 3.32031 16.6523 3.32812C16.7539 3.33594 16.8555 3.34375 16.957 3.35156C17.0625 3.35938 17.1602 3.36328 17.25 3.36328C17.3438 3.36328 17.4434 3.36133 17.5488 3.35742C17.6543 3.35352 17.7578 3.35156 17.8594 3.35156C17.9609 3.34766 18.0566 3.34375 18.1465 3.33984C18.2363 3.33594 18.3125 3.33398 18.375 3.33398C18.3867 3.33398 18.4043 3.33398 18.4277 3.33398C18.4551 3.33398 18.4805 3.33789 18.5039 3.3457C18.5273 3.34961 18.5488 3.35742 18.5684 3.36914C18.5879 3.37695 18.5977 3.38867 18.5977 3.4043C18.5977 3.48633 18.5625 3.53711 18.4922 3.55664C18.4219 3.57617 18.3379 3.58594 18.2402 3.58594H17.8887C17.7598 3.58594 17.6953 3.61719 17.6953 3.67969C17.6953 3.78516 17.7129 3.87695 17.748 3.95508C17.7832 4.0332 17.8223 4.12305 17.8652 4.22461C17.8926 4.30664 17.9336 4.42578 17.9883 4.58203C18.043 4.73828 18.1035 4.91406 18.1699 5.10938C18.2363 5.30078 18.3066 5.50391 18.3809 5.71875C18.4551 5.92969 18.5273 6.13477 18.5977 6.33398C18.668 6.5293 18.7344 6.70898 18.7969 6.87305C18.8633 7.0332 18.918 7.1582 18.9609 7.24805C18.9883 7.32617 19.0332 7.36523 19.0957 7.36523C19.1191 7.36523 19.1504 7.3418 19.1895 7.29492C19.2285 7.24414 19.2598 7.18359 19.2832 7.11328C19.3613 6.91406 19.4297 6.73438 19.4883 6.57422C19.5508 6.41406 19.6094 6.25586 19.6641 6.09961C19.7188 5.93945 19.7715 5.77344 19.8223 5.60156C19.877 5.42969 19.9375 5.23438 20.0039 5.01562C20.0508 4.86719 20.0996 4.7168 20.1504 4.56445C20.2012 4.41211 20.2266 4.26172 20.2266 4.11328C20.2266 4.04688 20.209 3.97852 20.1738 3.9082C20.1426 3.83789 20.1035 3.78125 20.0566 3.73828C20.0215 3.71094 19.9648 3.69141 19.8867 3.67969C19.8125 3.66797 19.7344 3.6543 19.6523 3.63867C19.5742 3.62305 19.5059 3.59961 19.4473 3.56836C19.3887 3.5332 19.3594 3.47852 19.3594 3.4043C19.3594 3.35742 19.3789 3.33008 19.418 3.32227C19.457 3.31445 19.498 3.31055 19.541 3.31055C19.6074 3.31055 19.6875 3.31445 19.7812 3.32227C19.8789 3.32617 19.9824 3.33398 20.0918 3.3457C20.2012 3.35352 20.3125 3.36133 20.4258 3.36914C20.5391 3.37305 20.6465 3.375 20.748 3.375C20.8965 3.375 21.0449 3.37109 21.1934 3.36328C21.3418 3.35156 21.4902 3.3418 21.6387 3.33398C21.6699 3.33398 21.7051 3.33594 21.7441 3.33984C21.7832 3.33984 21.8203 3.3457 21.8555 3.35742C21.8906 3.36523 21.9199 3.38086 21.9434 3.4043C21.9707 3.42773 21.9844 3.45898 21.9844 3.49805C21.9844 3.54492 21.9609 3.57031 21.9141 3.57422C21.7891 3.59766 21.6816 3.62109 21.5918 3.64453C21.5059 3.66406 21.4258 3.69141 21.3516 3.72656C21.2812 3.75781 21.2109 3.80078 21.1406 3.85547C21.0742 3.90625 21 3.97461 20.918 4.06055C20.7773 4.20898 20.6426 4.43359 20.5137 4.73438C20.3848 5.01953 20.2734 5.27734 20.1797 5.50781C20.0859 5.73828 19.998 5.95898 19.916 6.16992C19.834 6.38086 19.75 6.5918 19.6641 6.80273C19.582 7.00977 19.4863 7.23633 19.377 7.48242C19.3105 7.63086 19.2402 7.78125 19.166 7.93359C19.0957 8.08594 19.0352 8.23828 18.9844 8.39062C18.9688 8.42578 18.9512 8.47656 18.9316 8.54297C18.9121 8.60547 18.8906 8.66992 18.8672 8.73633C18.8438 8.79883 18.8184 8.85352 18.791 8.90039C18.7637 8.94727 18.7324 8.9707 18.6973 8.9707C18.6309 8.9707 18.5742 8.93359 18.5273 8.85938C18.4844 8.78516 18.4492 8.70703 18.4219 8.625C18.3984 8.55469 18.3652 8.46094 18.3223 8.34375C18.2793 8.22656 18.2305 8.0957 18.1758 7.95117C18.125 7.80664 18.0703 7.6543 18.0117 7.49414C17.957 7.33398 17.9023 7.17969 17.8477 7.03125C17.793 6.87891 17.7422 6.73828 17.6953 6.60938C17.6484 6.47656 17.6113 6.36719 17.584 6.28125C17.5527 6.25 17.5312 6.23438 17.5195 6.23438C17.4922 6.23438 17.4727 6.25 17.4609 6.28125C17.4023 6.36328 17.3594 6.44922 17.332 6.53906C17.1523 6.9375 16.9688 7.31836 16.7812 7.68164C16.5977 8.04102 16.4219 8.40625 16.2539 8.77734C16.2109 8.86328 16.1699 8.93164 16.1309 8.98242C16.0918 9.0332 16.0391 9.05859 15.9727 9.05859C15.875 9.05859 15.8066 9.02539 15.7676 8.95898ZM27.0938 5.25H23.0391C22.9961 5.26562 22.9707 5.2832 22.9629 5.30273C22.9551 5.31836 22.9473 5.35156 22.9395 5.40234C22.9316 5.4375 22.9238 5.51367 22.916 5.63086C22.9121 5.74805 22.9102 5.88086 22.9102 6.0293C22.9102 6.17773 22.9277 6.32031 22.9629 6.45703C22.998 6.59375 23.0371 6.72852 23.0801 6.86133C23.2441 7.3457 23.5 7.71484 23.8477 7.96875C24.1992 8.22266 24.6602 8.34961 25.2305 8.34961C25.3164 8.34961 25.4102 8.33398 25.5117 8.30273C25.6133 8.27148 25.7148 8.23242 25.8164 8.18555C25.918 8.13477 26.0156 8.07617 26.1094 8.00977C26.2031 7.94336 26.2852 7.875 26.3555 7.80469C26.4062 7.75781 26.4473 7.70508 26.4785 7.64648C26.5137 7.58398 26.5566 7.50781 26.6074 7.41797C26.623 7.40234 26.6445 7.39062 26.6719 7.38281C26.6992 7.37109 26.7227 7.36523 26.7422 7.36523C26.8125 7.36523 26.8594 7.38867 26.8828 7.43555C26.9102 7.47852 26.9238 7.5332 26.9238 7.59961C26.9238 7.61914 26.916 7.64648 26.9004 7.68164C26.8887 7.71289 26.873 7.74609 26.8535 7.78125C26.8379 7.81641 26.8184 7.85156 26.7949 7.88672C26.7754 7.91797 26.7598 7.94141 26.748 7.95703C26.5996 8.17969 26.4121 8.37695 26.1855 8.54883C25.959 8.7168 25.6875 8.85352 25.3711 8.95898C25.3008 8.97852 25.1797 8.99414 25.0078 9.00586C24.8398 9.02148 24.6562 9.0293 24.457 9.0293C24.2812 9.0293 24.0996 9.00586 23.9121 8.95898C23.7285 8.91211 23.5488 8.8457 23.373 8.75977C23.1973 8.67383 23.0332 8.57422 22.8809 8.46094C22.7324 8.34766 22.6094 8.22266 22.5117 8.08594C22.3008 7.79688 22.1445 7.50391 22.043 7.20703C21.9453 6.91016 21.8965 6.57812 21.8965 6.21094C21.8965 6.07812 21.9023 5.95312 21.9141 5.83594C21.9297 5.71484 21.9531 5.59766 21.9844 5.48438C22.0195 5.37109 22.0625 5.25977 22.1133 5.15039C22.1641 5.03711 22.2266 4.92188 22.3008 4.80469C22.4297 4.58984 22.5762 4.39258 22.7402 4.21289C22.9043 4.0332 23.0859 3.87891 23.2852 3.75C23.4844 3.62109 23.6992 3.52148 23.9297 3.45117C24.1602 3.38086 24.4082 3.3457 24.6738 3.3457C24.8965 3.3457 25.127 3.36914 25.3652 3.41602C25.6074 3.45898 25.8398 3.55664 26.0625 3.70898C26.1328 3.75977 26.2305 3.83789 26.3555 3.94336C26.4805 4.04883 26.6035 4.16797 26.7246 4.30078C26.8457 4.42969 26.9512 4.56641 27.041 4.71094C27.1309 4.85547 27.1758 4.99414 27.1758 5.12695C27.1758 5.16211 27.168 5.19141 27.1523 5.21484C27.1406 5.23828 27.1211 5.25 27.0938 5.25ZM23.1914 4.93359H25.7988C25.8652 4.93359 25.9043 4.92578 25.916 4.91016C25.9316 4.89062 25.9395 4.87109 25.9395 4.85156C25.9395 4.76172 25.916 4.66797 25.8691 4.57031C25.8262 4.47266 25.7715 4.38086 25.7051 4.29492C25.6426 4.20508 25.5781 4.125 25.5117 4.05469C25.4453 3.98438 25.3887 3.92969 25.3418 3.89062C25.2168 3.78516 25.0918 3.7168 24.9668 3.68555C24.8418 3.6543 24.6992 3.63867 24.5391 3.63867C24.4727 3.63867 24.4102 3.64062 24.3516 3.64453C24.2969 3.64453 24.2422 3.64844 24.1875 3.65625C24.1328 3.66406 24.0781 3.67578 24.0234 3.69141C23.9688 3.70703 23.9082 3.73047 23.8418 3.76172C23.7676 3.79688 23.6855 3.85352 23.5957 3.93164C23.5098 4.00586 23.4277 4.09375 23.3496 4.19531C23.2754 4.29297 23.2109 4.40039 23.1562 4.51758C23.1055 4.63477 23.0801 4.75 23.0801 4.86328C23.0801 4.91016 23.1172 4.93359 23.1914 4.93359ZM28.752 8.53125V5.32031C28.752 5.20312 28.75 5.08008 28.7461 4.95117C28.7461 4.81836 28.7383 4.69531 28.7227 4.58203C28.7109 4.46875 28.6895 4.37305 28.6582 4.29492C28.6309 4.21289 28.5918 4.16016 28.541 4.13672C28.4473 4.09375 28.332 4.07227 28.1953 4.07227C28.1055 4.07227 28.0215 4.07617 27.9434 4.08398C27.8691 4.0918 27.8008 4.0957 27.7383 4.0957C27.7188 4.0957 27.7012 4.08789 27.6855 4.07227C27.6699 4.05664 27.6621 4.04102 27.6621 4.02539C27.6621 3.98242 27.6758 3.95703 27.7031 3.94922C27.8242 3.87891 27.9473 3.83008 28.0723 3.80273C28.1973 3.77539 28.3262 3.74023 28.459 3.69727C28.5762 3.66211 28.6953 3.625 28.8164 3.58594C28.9375 3.54688 29.0488 3.49609 29.1504 3.43359C29.2207 3.39844 29.2852 3.36133 29.3438 3.32227C29.4023 3.2832 29.4766 3.26367 29.5664 3.26367C29.5898 3.26367 29.6113 3.2793 29.6309 3.31055C29.6543 3.33789 29.666 3.35938 29.666 3.375V3.69727C29.666 3.72852 29.666 3.76562 29.666 3.80859C29.6699 3.85156 29.6719 3.89453 29.6719 3.9375C29.6758 3.98047 29.6797 4.02148 29.6836 4.06055C29.6875 4.0957 29.6914 4.12109 29.6953 4.13672C29.6992 4.15234 29.7051 4.16406 29.7129 4.17188L29.7188 4.17773C29.7422 4.17773 29.7637 4.16602 29.7832 4.14258C29.8027 4.11523 29.8242 4.08203 29.8477 4.04297C29.875 4 29.9043 3.95312 29.9355 3.90234C29.9707 3.85156 30.0156 3.80078 30.0703 3.75C30.1445 3.67578 30.2266 3.60742 30.3164 3.54492C30.4102 3.47852 30.5059 3.42188 30.6035 3.375C30.7051 3.32812 30.8066 3.29102 30.9082 3.26367C31.0137 3.23633 31.1172 3.22266 31.2188 3.22266C31.3672 3.22266 31.5195 3.23633 31.6758 3.26367C31.832 3.28711 31.9727 3.33203 32.0977 3.39844C32.2266 3.46094 32.332 3.55078 32.4141 3.66797C32.4961 3.78516 32.5371 3.93359 32.5371 4.11328C32.5371 4.21094 32.5156 4.30078 32.4727 4.38281C32.4336 4.46484 32.3789 4.53516 32.3086 4.59375C32.2422 4.65234 32.1641 4.69922 32.0742 4.73438C31.9883 4.76562 31.8984 4.78125 31.8047 4.78125C31.7422 4.78125 31.6758 4.77148 31.6055 4.75195C31.5352 4.73242 31.4902 4.70898 31.4707 4.68164C31.3496 4.57227 31.2656 4.42383 31.2188 4.23633C31.1992 4.13086 31.1855 4.04297 31.1777 3.97266C31.1738 3.89844 31.1582 3.8418 31.1309 3.80273C31.1074 3.75977 31.0664 3.73047 31.0078 3.71484C30.9492 3.69531 30.8574 3.68555 30.7324 3.68555C30.6309 3.68555 30.5254 3.71289 30.416 3.76758C30.3105 3.81836 30.2109 3.88477 30.1172 3.9668C30.0273 4.04883 29.9492 4.14062 29.8828 4.24219C29.8164 4.33984 29.7773 4.43555 29.7656 4.5293C29.7461 4.61523 29.7344 4.70898 29.7305 4.81055C29.7305 4.9082 29.7305 5.00977 29.7305 5.11523V8.63672C29.7539 8.6875 29.7969 8.7207 29.8594 8.73633C29.9219 8.74805 29.9922 8.75391 30.0703 8.75391C30.0938 8.75391 30.125 8.75391 30.1641 8.75391C30.207 8.75 30.25 8.74805 30.293 8.74805C30.3398 8.74414 30.3809 8.74219 30.416 8.74219C30.4512 8.73828 30.4746 8.73633 30.4863 8.73633C30.5762 8.73633 30.6484 8.74805 30.7031 8.77148C30.7617 8.79102 30.791 8.83594 30.791 8.90625C30.791 8.95312 30.7676 8.99609 30.7207 9.03516C30.6777 9.07422 30.6348 9.0957 30.5918 9.09961C30.377 9.06445 30.1562 9.03906 29.9297 9.02344C29.707 9.00781 29.4844 9 29.2617 9C29.0273 9 28.8086 9.00977 28.6055 9.0293C28.4023 9.04883 28.1914 9.05859 27.9727 9.05859C27.9297 9.05859 27.8789 9.04297 27.8203 9.01172C27.7656 8.98047 27.7383 8.93945 27.7383 8.88867C27.7383 8.85742 27.748 8.83008 27.7676 8.80664C27.7871 8.7832 27.8105 8.76562 27.8379 8.75391C27.8691 8.73828 27.8984 8.72656 27.9258 8.71875C27.957 8.71094 27.9824 8.70703 28.002 8.70703C28.0449 8.70703 28.0859 8.70898 28.125 8.71289C28.168 8.7168 28.2129 8.7207 28.2598 8.72461C28.2949 8.73242 28.332 8.73828 28.3711 8.74219C28.4102 8.74609 28.4473 8.74805 28.4824 8.74805C28.5059 8.74805 28.5312 8.74219 28.5586 8.73047C28.5898 8.71875 28.6191 8.70312 28.6465 8.68359C28.6777 8.66016 28.7031 8.63672 28.7227 8.61328C28.7422 8.58594 28.752 8.55859 28.752 8.53125ZM36.0469 8.70703C36.0469 8.63672 36.0566 8.55078 36.0762 8.44922C36.0996 8.34375 36.1348 8.23633 36.1816 8.12695C36.2637 7.91211 36.3633 7.6582 36.4805 7.36523C36.5977 7.06836 36.7227 6.75977 36.8555 6.43945C36.9883 6.11523 37.123 5.79297 37.2598 5.47266C37.3965 5.14844 37.5234 4.85156 37.6406 4.58203C37.6758 4.50391 37.6992 4.43555 37.7109 4.37695C37.7227 4.31445 37.7285 4.26758 37.7285 4.23633C37.7285 4.2168 37.7109 4.18945 37.6758 4.1543C37.6445 4.11523 37.6191 4.0957 37.5996 4.0957C37.5449 4.0957 37.4902 4.10352 37.4355 4.11914C37.3848 4.13477 37.3379 4.16406 37.2949 4.20703C37.0254 4.41797 36.75 4.64258 36.4688 4.88086C36.1914 5.11523 35.9121 5.38086 35.6309 5.67773C35.5176 5.79102 35.4062 5.91992 35.2969 6.06445C35.1875 6.20508 35.082 6.35352 34.9805 6.50977C34.8789 6.66602 34.7832 6.82422 34.6934 6.98438C34.6035 7.14453 34.5234 7.29688 34.4531 7.44141C34.4141 7.51562 34.3594 7.62695 34.2891 7.77539C34.2227 7.92383 34.1426 8.07422 34.0488 8.22656C33.959 8.37891 33.8594 8.51367 33.75 8.63086C33.6406 8.74414 33.5273 8.80273 33.4102 8.80664C33.3594 8.80664 33.3086 8.79688 33.2578 8.77734C33.2109 8.75391 33.166 8.72461 33.123 8.68945C33.084 8.65039 33.0508 8.60742 33.0234 8.56055C33 8.51367 32.9883 8.46484 32.9883 8.41406C32.9883 8.31641 33 8.21875 33.0234 8.12109C33.0508 8.02344 33.082 7.92773 33.1172 7.83398C33.1562 7.74023 33.1973 7.64844 33.2402 7.55859C33.2832 7.46875 33.3242 7.38086 33.3633 7.29492C33.457 7.0918 33.543 6.89844 33.6211 6.71484C33.7031 6.53125 33.7812 6.35156 33.8555 6.17578C33.9297 6 34.002 5.82617 34.0723 5.6543C34.1465 5.48242 34.2227 5.30273 34.3008 5.11523C34.3359 5.04102 34.3789 4.95703 34.4297 4.86328C34.4844 4.76953 34.5352 4.67383 34.582 4.57617C34.6328 4.47461 34.6758 4.375 34.7109 4.27734C34.75 4.17578 34.7695 4.08008 34.7695 3.99023C34.6562 3.99023 34.5469 4.01758 34.4414 4.07227C34.3398 4.12305 34.2402 4.18945 34.1426 4.27148C34.0488 4.34961 33.959 4.43555 33.873 4.5293C33.791 4.62305 33.7148 4.71094 33.6445 4.79297C33.6133 4.82812 33.5801 4.86914 33.5449 4.91602C33.5098 4.96289 33.4746 5.00781 33.4395 5.05078C33.4043 5.08984 33.3691 5.125 33.334 5.15625C33.2988 5.18359 33.2637 5.19727 33.2285 5.19727C33.1973 5.19727 33.1738 5.18945 33.1582 5.17383C33.1465 5.1543 33.1406 5.13477 33.1406 5.11523C33.1406 5.06836 33.1543 5.00391 33.1816 4.92188C33.2129 4.83594 33.252 4.74609 33.2988 4.65234C33.3457 4.55859 33.3965 4.4668 33.4512 4.37695C33.5059 4.28711 33.5605 4.21289 33.6152 4.1543C33.7207 4.0293 33.834 3.91406 33.9551 3.80859C34.0762 3.69922 34.2012 3.60547 34.3301 3.52734C34.459 3.44531 34.5879 3.38086 34.7168 3.33398C34.8496 3.28711 34.9785 3.26367 35.1035 3.26367C35.2559 3.26367 35.3574 3.29688 35.4082 3.36328C35.4629 3.42969 35.4902 3.51367 35.4902 3.61523C35.4902 3.68164 35.4785 3.75 35.4551 3.82031C35.4355 3.89062 35.4141 3.96094 35.3906 4.03125C35.3008 4.25391 35.1992 4.49609 35.0859 4.75781C34.9727 5.01562 34.8711 5.26367 34.7812 5.50195C34.7383 5.61914 34.6953 5.73242 34.6523 5.8418C34.6094 5.95117 34.5879 6.05469 34.5879 6.15234C34.6738 6.08984 34.7539 6.01758 34.8281 5.93555C34.9062 5.84961 34.9785 5.77344 35.0449 5.70703C35.1973 5.54688 35.3496 5.39258 35.502 5.24414C35.6543 5.0957 35.8105 4.94922 35.9707 4.80469C36.1348 4.66016 36.3047 4.51953 36.4805 4.38281C36.6562 4.24219 36.8457 4.10156 37.0488 3.96094C37.2559 3.82422 37.4668 3.71484 37.6816 3.63281C37.8965 3.54688 38.1094 3.50391 38.3203 3.50391C38.4688 3.50391 38.5898 3.54297 38.6836 3.62109C38.7773 3.69922 38.8242 3.80664 38.8242 3.94336C38.8242 4.0293 38.8047 4.13672 38.7656 4.26562C38.7266 4.39062 38.6855 4.50977 38.6426 4.62305C38.4082 5.2168 38.1699 5.80664 37.9277 6.39258C37.6895 6.97461 37.4375 7.55664 37.1719 8.13867C37.1719 8.20508 37.2051 8.23828 37.2715 8.23828C37.3105 8.23828 37.375 8.20898 37.4648 8.15039C37.5586 8.08789 37.6582 8.01758 37.7637 7.93945C37.8691 7.86133 37.9707 7.7832 38.0684 7.70508C38.166 7.62695 38.2363 7.57227 38.2793 7.54102C38.2832 7.53711 38.2969 7.52539 38.3203 7.50586C38.3477 7.48633 38.377 7.46484 38.4082 7.44141C38.4395 7.41406 38.4707 7.38672 38.502 7.35938C38.5332 7.33203 38.5566 7.31055 38.5723 7.29492C38.627 7.22852 38.6777 7.19531 38.7246 7.19531C38.7559 7.19531 38.7871 7.20703 38.8184 7.23047C38.8496 7.25391 38.8652 7.28711 38.8652 7.33008C38.8652 7.34961 38.8516 7.38086 38.8242 7.42383C38.8008 7.46289 38.7637 7.50586 38.7129 7.55273C38.5605 7.72461 38.3828 7.9082 38.1797 8.10352C37.9805 8.29492 37.7695 8.47461 37.5469 8.64258C37.3711 8.77539 37.1953 8.88477 37.0195 8.9707C36.8477 9.05664 36.6484 9.09961 36.4219 9.09961C36.2852 9.09961 36.1875 9.06836 36.1289 9.00586C36.0742 8.94727 36.0469 8.84766 36.0469 8.70703ZM40.3066 8.00391C40.3066 8.08203 40.3184 8.16602 40.3418 8.25586C40.3652 8.3418 40.4004 8.42188 40.4473 8.49609C40.4941 8.57031 40.5508 8.63281 40.6172 8.68359C40.6836 8.73047 40.7617 8.75391 40.8516 8.75391C40.9453 8.75391 41.0293 8.74414 41.1035 8.72461C41.1816 8.70117 41.2539 8.66797 41.3203 8.625C41.3906 8.57812 41.459 8.52344 41.5254 8.46094C41.5957 8.39453 41.6699 8.31836 41.748 8.23242C41.9512 8.00586 42.1465 7.74609 42.334 7.45312C42.5215 7.15625 42.6875 6.84961 42.832 6.5332C42.9805 6.2168 43.0977 5.90234 43.1836 5.58984C43.2734 5.27734 43.3184 4.98828 43.3184 4.72266C43.3184 4.625 43.3066 4.52148 43.2832 4.41211C43.2598 4.30273 43.2246 4.20312 43.1777 4.11328C43.1309 4.01953 43.0723 3.94336 43.002 3.88477C42.9316 3.82227 42.8477 3.79102 42.75 3.79102C42.5352 3.79102 42.3281 3.88477 42.1289 4.07227C41.8516 4.32617 41.6016 4.60547 41.3789 4.91016C41.1562 5.21094 40.9648 5.5293 40.8047 5.86523C40.6445 6.20117 40.5215 6.55078 40.4355 6.91406C40.3496 7.27344 40.3066 7.63672 40.3066 8.00391ZM42.4863 3.42773C42.7715 3.42773 43.0078 3.49414 43.1953 3.62695C43.3828 3.75977 43.5312 3.92969 43.6406 4.13672C43.7539 4.34375 43.832 4.57227 43.875 4.82227C43.9219 5.06836 43.9453 5.30859 43.9453 5.54297C43.9453 5.80859 43.9141 6.08203 43.8516 6.36328C43.7891 6.64062 43.6992 6.91211 43.582 7.17773C43.4688 7.43945 43.3281 7.6875 43.1602 7.92188C42.9922 8.15234 42.8027 8.35547 42.5918 8.53125C42.3848 8.70703 42.1562 8.8457 41.9062 8.94727C41.6562 9.04883 41.3926 9.09961 41.1152 9.09961C40.9043 9.09961 40.7227 9.0625 40.5703 8.98828C40.418 8.91016 40.2852 8.80664 40.1719 8.67773C40.0625 8.54883 39.9688 8.39844 39.8906 8.22656C39.8164 8.05469 39.75 7.87305 39.6914 7.68164C39.6836 7.65039 39.6738 7.59961 39.6621 7.5293C39.6543 7.45898 39.6465 7.38477 39.6387 7.30664C39.6309 7.22852 39.623 7.15625 39.6152 7.08984C39.6113 7.01953 39.6094 6.9707 39.6094 6.94336C39.6094 6.68945 39.6406 6.42578 39.7031 6.15234C39.7695 5.87891 39.8613 5.61328 39.9785 5.35547C40.0996 5.09375 40.2461 4.8457 40.418 4.61133C40.5898 4.37695 40.7812 4.17383 40.9922 4.00195C41.207 3.82617 41.4395 3.6875 41.6895 3.58594C41.9395 3.48047 42.2051 3.42773 42.4863 3.42773ZM44.4668 8.625C44.4668 8.44531 44.5215 8.22852 44.6309 7.97461C44.7715 7.64258 44.9062 7.32227 45.0352 7.01367C45.168 6.70117 45.2969 6.39453 45.4219 6.09375C45.5508 5.79297 45.6738 5.49609 45.791 5.20312C45.9121 4.91016 46.0293 4.61719 46.1426 4.32422C46.1504 4.30469 46.1621 4.28125 46.1777 4.25391C46.1934 4.22266 46.209 4.19141 46.2246 4.16016C46.2402 4.12891 46.2539 4.09766 46.2656 4.06641C46.2773 4.03516 46.2832 4.00781 46.2832 3.98438C46.2832 3.95312 46.2734 3.92773 46.2539 3.9082C46.2383 3.88867 46.2051 3.87891 46.1543 3.87891H45.2402C45.1895 3.87891 45.1582 3.86523 45.1465 3.83789C45.1348 3.81055 45.1289 3.78711 45.1289 3.76758C45.1289 3.69727 45.1504 3.625 45.1934 3.55078C45.2363 3.47266 45.3027 3.43359 45.3926 3.43359H46.5293C46.5371 3.43359 46.5469 3.42383 46.5586 3.4043C46.5742 3.38086 46.5898 3.35352 46.6055 3.32227C46.625 3.2793 46.6426 3.22852 46.6582 3.16992C46.6777 3.10742 46.6953 3.04688 46.7109 2.98828C46.7266 2.92969 46.7402 2.87891 46.752 2.83594C46.7637 2.78906 46.7734 2.75977 46.7812 2.74805C46.8242 2.64648 46.873 2.55078 46.9277 2.46094C46.9863 2.36719 47.0527 2.28711 47.127 2.2207C47.2012 2.15039 47.2852 2.0957 47.3789 2.05664C47.4766 2.01758 47.584 1.99805 47.7012 1.99805C47.7832 1.99805 47.8398 2.02148 47.8711 2.06836C47.9062 2.11133 47.9238 2.17773 47.9238 2.26758C47.9238 2.36914 47.9004 2.46289 47.8535 2.54883C47.8066 2.63477 47.7559 2.7207 47.7012 2.80664C47.6465 2.88867 47.5957 2.97266 47.5488 3.05859C47.502 3.14453 47.4785 3.23633 47.4785 3.33398C47.4785 3.36133 47.4844 3.38477 47.4961 3.4043C47.5078 3.42383 47.5352 3.43359 47.5781 3.43359H48.4336C48.4648 3.43359 48.498 3.45312 48.5332 3.49219C48.5684 3.53125 48.5859 3.57227 48.5859 3.61523C48.5859 3.66992 48.5664 3.71289 48.5273 3.74414C48.4922 3.77539 48.4473 3.80078 48.3926 3.82031C48.3418 3.83594 48.2871 3.84766 48.2285 3.85547C48.1699 3.85938 48.1191 3.86133 48.0762 3.86133C48.0254 3.86133 47.957 3.85742 47.8711 3.84961C47.7891 3.8418 47.7129 3.83789 47.6426 3.83789C47.5605 3.83789 47.4824 3.84375 47.4082 3.85547C47.3379 3.86719 47.2773 3.91211 47.2266 3.99023C47.2188 3.99023 47.2109 4.00391 47.2031 4.03125C47.1992 4.05859 47.1934 4.08203 47.1855 4.10156C47.0566 4.42188 46.9297 4.73633 46.8047 5.04492C46.6836 5.34961 46.5605 5.6543 46.4355 5.95898C46.3145 6.25977 46.1914 6.5625 46.0664 6.86719C45.9453 7.16797 45.8223 7.47266 45.6973 7.78125C45.6543 7.88281 45.6191 7.98438 45.5918 8.08594C45.5645 8.1875 45.5508 8.25586 45.5508 8.29102C45.5508 8.3457 45.5723 8.37305 45.6152 8.37305C45.6582 8.37305 45.7109 8.35547 45.7734 8.32031C45.8398 8.28516 45.8945 8.25195 45.9375 8.2207C46.082 8.0957 46.2402 7.95312 46.4121 7.79297C46.584 7.63281 46.7949 7.4375 47.0449 7.20703C47.0645 7.1875 47.084 7.16797 47.1035 7.14844C47.127 7.125 47.1543 7.11328 47.1855 7.11328C47.2129 7.11328 47.2266 7.13672 47.2266 7.18359C47.2266 7.21094 47.2168 7.25 47.1973 7.30078C47.1816 7.34766 47.1602 7.39844 47.1328 7.45312C47.1055 7.50781 47.0742 7.5625 47.0391 7.61719C47.0039 7.67188 46.9688 7.7207 46.9336 7.76367C46.8242 7.90039 46.6934 8.04688 46.541 8.20312C46.3887 8.35938 46.2246 8.50391 46.0488 8.63672C45.873 8.76562 45.6914 8.875 45.5039 8.96484C45.3203 9.05078 45.1406 9.09375 44.9648 9.09375C44.8125 9.09375 44.6914 9.05469 44.6016 8.97656C44.5117 8.89453 44.4668 8.77734 44.4668 8.625ZM49.6289 5.34961C49.6289 5.45117 49.6777 5.50195 49.7754 5.50195C49.9121 5.50195 50.0605 5.48242 50.2207 5.44336C50.3848 5.4043 50.5293 5.36328 50.6543 5.32031C50.8223 5.27344 51.0078 5.19922 51.2109 5.09766C51.4141 4.99219 51.6016 4.86719 51.7734 4.72266C51.9492 4.57422 52.0957 4.41016 52.2129 4.23047C52.3301 4.05078 52.3887 3.85742 52.3887 3.65039C52.3887 3.52539 52.3359 3.43555 52.2305 3.38086C52.1289 3.32227 52.0117 3.29297 51.8789 3.29297C51.7578 3.29297 51.6348 3.31641 51.5098 3.36328C51.3848 3.41016 51.2637 3.46875 51.1465 3.53906C51.0293 3.60938 50.918 3.68555 50.8125 3.76758C50.7109 3.84961 50.6211 3.92383 50.543 3.99023C50.4727 4.05273 50.3848 4.14258 50.2793 4.25977C50.1777 4.37305 50.0781 4.49609 49.9805 4.62891C49.8867 4.75781 49.8047 4.88867 49.7344 5.02148C49.6641 5.15039 49.6289 5.25977 49.6289 5.34961ZM49.5703 5.75391C49.4883 5.79297 49.418 5.85938 49.3594 5.95312C49.3008 6.04297 49.252 6.14453 49.2129 6.25781C49.1777 6.36719 49.1523 6.48047 49.1367 6.59766C49.1211 6.71094 49.1133 6.80859 49.1133 6.89062C49.1133 7.07031 49.1328 7.25586 49.1719 7.44727C49.2109 7.63867 49.2734 7.81445 49.3594 7.97461C49.4492 8.13086 49.5664 8.25977 49.7109 8.36133C49.8555 8.46289 50.0312 8.51367 50.2383 8.51367C50.3984 8.51367 50.5391 8.48438 50.6602 8.42578C50.7812 8.36328 50.8867 8.28906 50.9766 8.20312C51.0703 8.11328 51.1484 8.01562 51.2109 7.91016C51.2773 7.80469 51.334 7.70898 51.3809 7.62305C51.4277 7.5332 51.4668 7.45898 51.498 7.40039C51.5332 7.33789 51.5664 7.30664 51.5977 7.30664C51.6328 7.30664 51.6562 7.32812 51.668 7.37109C51.6836 7.41016 51.6914 7.45312 51.6914 7.5C51.6875 7.64844 51.6465 7.79883 51.5684 7.95117C51.4902 8.09961 51.3926 8.24219 51.2754 8.37891C51.1582 8.51562 51.0293 8.64062 50.8887 8.75391C50.752 8.86328 50.623 8.95117 50.502 9.01758C50.4551 9.04492 50.3984 9.06836 50.332 9.08789C50.2656 9.10742 50.1953 9.12305 50.1211 9.13477C50.0469 9.14648 49.9727 9.1543 49.8984 9.1582C49.8281 9.16602 49.7656 9.16992 49.7109 9.16992C49.5898 9.16992 49.4629 9.14844 49.3301 9.10547C49.2012 9.0625 49.0762 9.00195 48.9551 8.92383C48.834 8.8418 48.7227 8.74609 48.6211 8.63672C48.5234 8.52734 48.4453 8.4043 48.3867 8.26758C48.3594 8.2168 48.332 8.1543 48.3047 8.08008C48.2812 8.00195 48.2578 7.92188 48.2344 7.83984C48.2148 7.75781 48.1992 7.67578 48.1875 7.59375C48.1758 7.50781 48.1699 7.42969 48.1699 7.35938C48.1699 7.10156 48.1973 6.83008 48.252 6.54492C48.3066 6.25586 48.3848 5.98242 48.4863 5.72461C48.5176 5.65039 48.5586 5.56641 48.6094 5.47266C48.6602 5.375 48.7168 5.27539 48.7793 5.17383C48.8457 5.06836 48.9141 4.96484 48.9844 4.86328C49.0547 4.75781 49.125 4.66406 49.1953 4.58203C49.3438 4.39453 49.5117 4.21484 49.6992 4.04297C49.8906 3.87109 50.0957 3.71875 50.3145 3.58594C50.5332 3.45312 50.7637 3.34766 51.0059 3.26953C51.252 3.19141 51.5059 3.15234 51.7676 3.15234C51.8926 3.15234 52.0332 3.17188 52.1895 3.21094C52.3457 3.24609 52.4922 3.30078 52.6289 3.375C52.7695 3.44922 52.8867 3.54297 52.9805 3.65625C53.0742 3.76953 53.1211 3.90234 53.1211 4.05469C53.1211 4.33984 53.0625 4.58008 52.9453 4.77539C52.832 4.9668 52.6777 5.125 52.4824 5.25C52.291 5.375 52.0703 5.47266 51.8203 5.54297C51.5742 5.60938 51.3203 5.6582 51.0586 5.68945C50.7969 5.7207 50.5352 5.74023 50.2734 5.74805C50.0156 5.75195 49.7812 5.75391 49.5703 5.75391ZM52.5352 7.9043C52.5352 7.77148 52.5391 7.66211 52.5469 7.57617C52.5547 7.48633 52.5742 7.39648 52.6055 7.30664C52.7812 7.30664 52.918 7.31641 53.0156 7.33594C53.1133 7.35547 53.1953 7.41016 53.2617 7.5C53.2734 7.62109 53.2793 7.75391 53.2793 7.89844C53.2832 8.04297 53.3027 8.17969 53.3379 8.30859C53.373 8.43359 53.4316 8.53906 53.5137 8.625C53.5957 8.70703 53.7227 8.74805 53.8945 8.74805C53.9727 8.74805 54.0664 8.73828 54.1758 8.71875C54.2891 8.69531 54.3867 8.64453 54.4688 8.56641C54.5352 8.5 54.5801 8.42188 54.6035 8.33203C54.6309 8.23828 54.6445 8.14648 54.6445 8.05664C54.6445 7.82617 54.6172 7.59961 54.5625 7.37695C54.5117 7.15039 54.4551 6.92383 54.3926 6.69727C54.334 6.4668 54.2773 6.23633 54.2227 6.00586C54.1719 5.77148 54.1465 5.5332 54.1465 5.29102C54.1465 5.0293 54.1836 4.78906 54.2578 4.57031C54.332 4.34766 54.4395 4.1582 54.5801 4.00195C54.7207 3.8418 54.8906 3.71875 55.0898 3.63281C55.2891 3.54297 55.5156 3.49805 55.7695 3.49805C55.875 3.49805 55.9824 3.50977 56.0918 3.5332C56.2051 3.55664 56.3066 3.5957 56.3965 3.65039C56.4863 3.70117 56.5605 3.76953 56.6191 3.85547C56.6777 3.9375 56.707 4.04102 56.707 4.16602C56.707 4.28711 56.6719 4.39648 56.6016 4.49414C56.5352 4.5918 56.4355 4.64062 56.3027 4.64062C56.209 4.64062 56.1367 4.61914 56.0859 4.57617C56.0391 4.5332 56 4.48047 55.9688 4.41797C55.9375 4.35547 55.9102 4.28711 55.8867 4.21289C55.8633 4.13477 55.8281 4.06445 55.7812 4.00195C55.7383 3.93945 55.6758 3.88672 55.5938 3.84375C55.5156 3.80078 55.4082 3.7793 55.2715 3.7793C55.1816 3.7793 55.1055 3.80078 55.043 3.84375C54.9805 3.88281 54.9297 3.93555 54.8906 4.00195C54.8555 4.06445 54.8301 4.13672 54.8145 4.21875C54.7988 4.29688 54.791 4.37695 54.791 4.45898C54.791 4.60742 54.8125 4.75781 54.8555 4.91016C54.9023 5.05859 54.957 5.22266 55.0195 5.40234C55.0742 5.56641 55.1289 5.73047 55.1836 5.89453C55.2422 6.05469 55.293 6.2168 55.3359 6.38086C55.3828 6.54102 55.4199 6.70508 55.4473 6.87305C55.4785 7.03711 55.4941 7.20508 55.4941 7.37695C55.4941 7.56836 55.4746 7.73633 55.4355 7.88086C55.4004 8.02539 55.3496 8.1543 55.2832 8.26758C55.2168 8.37695 55.1367 8.47461 55.043 8.56055C54.9531 8.64258 54.8535 8.71875 54.7441 8.78906C54.7012 8.8125 54.6406 8.83594 54.5625 8.85938C54.4844 8.88281 54.4004 8.9043 54.3105 8.92383C54.2246 8.93945 54.1387 8.95312 54.0527 8.96484C53.9668 8.97656 53.8926 8.98242 53.8301 8.98242C53.7949 8.98242 53.75 8.97852 53.6953 8.9707C53.6406 8.96289 53.582 8.95117 53.5195 8.93555C53.457 8.91992 53.3926 8.90039 53.3262 8.87695C53.2637 8.84961 53.2051 8.82031 53.1504 8.78906C53.0918 8.75 53.0254 8.70117 52.9512 8.64258C52.8809 8.58008 52.8145 8.51172 52.752 8.4375C52.6895 8.35938 52.6387 8.27539 52.5996 8.18555C52.5566 8.0957 52.5352 8.00195 52.5352 7.9043Z" fill="#F86781"/>
</svg>
